<svg id="Laag_1" data-name="Laag 1" xmlns="http://www.w3.org/2000/svg" viewBox="0 0 353.64 163.49"><defs><style>.cls-1{fill:#1d1d1b;}</style></defs><path class="cls-1" d="M208.25,335.63v1.17h-1.77v-.16h.25a1.19,1.19,0,0,0,.77-.27,1,1,0,0,0,.4-.74Zm1-10.26h.14l.56,1.6-1.07,9.83h-1.12ZM209,335.88V336a.76.76,0,0,0,.18.48.56.56,0,0,0,.44.21h.24v.15h-1v-.92Zm.41-10.51L214.6,334l-.91,3.16-4.73-8Zm9.73,0,.13,1.75-4.75,8.24a7.1,7.1,0,0,0-.48,1,2.22,2.22,0,0,0-.15.8h-.16l-.62-1.4Zm-1,10.51h.12v.92h-1v-.15h.24a.57.57,0,0,0,.45-.21.8.8,0,0,0,.17-.48v-.08Zm1.16-10.51,1.52,11.43h-2.58l-.8-7.36,1.71-4.07Zm1,10.26h.33a1.17,1.17,0,0,0,.42.74,1.19,1.19,0,0,0,.75.27H222v.16h-1.76Z" transform="translate(-145.51 -185.67)"/><path class="cls-1" d="M224.74,335.74c-.11.29-.1.51,0,.66a.66.66,0,0,0,.5.24h.12v.16h-3.2v-.16h.13a1.36,1.36,0,0,0,.67-.2,1.47,1.47,0,0,0,.58-.7Zm3-9,0,1.92-3.47,8.07h-1.18l3.74-8.05c0-.06.07-.18.14-.34s.16-.36.24-.56.17-.41.24-.6a1.46,1.46,0,0,0,.13-.44Zm1.39,6.9v.62h-4.08v-.62Zm-1.39-6.9,4.74,10h-2.71l-3-7Zm1.63,9H232a1.61,1.61,0,0,0,.59.7,1.42,1.42,0,0,0,.68.2h.12v.16h-4.7v-.16h.13a.64.64,0,0,0,.49-.24A.57.57,0,0,0,229.38,335.74Z" transform="translate(-145.51 -185.67)"/><path class="cls-1" d="M235,328.2h0a.81.81,0,0,0-.28-.6.9.9,0,0,0-.63-.24h-.19v-.16H235Zm0,7.57v1h-1.15v-.16h.21a.89.89,0,0,0,.63-.26.83.83,0,0,0,.26-.61Zm2.26-8.57v9.6H235v-9.6Zm2,0a7.11,7.11,0,0,1,2.94.56,4.24,4.24,0,0,1,1.89,1.65,5,5,0,0,1,.65,2.59,4.88,4.88,0,0,1-.65,2.57,4.24,4.24,0,0,1-1.89,1.65,6.94,6.94,0,0,1-2.94.58h-3.56l0-.64h3.39a2.82,2.82,0,0,0,2.37-1.11,4.79,4.79,0,0,0,.87-3.05,4.85,4.85,0,0,0-.87-3.07,2.82,2.82,0,0,0-2.37-1.11h-3.55v-.62Z" transform="translate(-145.51 -185.67)"/><path class="cls-1" d="M246.59,328.2h0a.84.84,0,0,0-.27-.6.81.81,0,0,0-.6-.24h-.2v-.16h1.18Zm0,7.59.08,1h-1.18v-.16h.2a.82.82,0,0,0,.6-.25.88.88,0,0,0,.27-.6Zm2.27-8.59v9.6h-2.3v-9.6Zm3.92,0v.64h-3.95v-.64Zm-.72,4.52v.64h-3.23v-.64Zm.55,4.44.36.64h-4.14v-.64Zm1-2.31L253,336.8h-2.77l.5-.64a2.64,2.64,0,0,0,1.22-.28,2.71,2.71,0,0,0,.92-.8,3.92,3.92,0,0,0,.6-1.23Zm-1.57-3.5v1.41h-1.37v0a1.16,1.16,0,0,0,.88-.37,1.27,1.27,0,0,0,.33-.89v-.11Zm0,2v1.41h-.16v-.13a1.25,1.25,0,0,0-.33-.88,1.19,1.19,0,0,0-.88-.37v0Zm.72-5.37v.38l-1.68-.14a5.67,5.67,0,0,0,1-.09A6.66,6.66,0,0,0,252.78,327Zm0,.84v1.7h-.16v-.14a1.57,1.57,0,0,0-.37-1.11,1.48,1.48,0,0,0-1.08-.41v0Z" transform="translate(-145.51 -185.67)"/><path class="cls-1" d="M259.68,328.2h-.05a.77.77,0,0,0-.27-.6.94.94,0,0,0-.64-.24h-.21v-.16h1.17Zm0,7.59v1h-1.17v-.16h.21a1,1,0,0,0,.64-.25.8.8,0,0,0,.27-.6Zm2.25-8.59v9.6h-2.3v-9.6Zm0,1v-1h1.15v.16h-.18a1,1,0,0,0-.65.24.85.85,0,0,0-.28.6Zm0,7.59h0a.89.89,0,0,0,.28.6,1,1,0,0,0,.65.25h.19v.16H261.9Z" transform="translate(-145.51 -185.67)"/><path class="cls-1" d="M265.18,335.82v1H264v-.16h.26a.88.88,0,0,0,.62-.24.75.75,0,0,0,.26-.58Zm-.07-8.85,2.21,2.4v7.43h-2.19v-8A12.6,12.6,0,0,0,265,327Zm0,0,9.39,8.26.16,1.77-9.37-8.25Zm2.21,8.85a.8.8,0,0,0,.27.58.85.85,0,0,0,.61.24h.27v.16h-1.18v-1Zm5.14-7.65a.86.86,0,0,0-.88-.81h-.28v-.16h1.19v1Zm2.19-1v7.93a9.7,9.7,0,0,0,0,1,7.39,7.39,0,0,0,.12.88h-.15l-2.2-2.54V327.2Zm0,1v-1h1.2v.16h-.27a.89.89,0,0,0-.62.23.75.75,0,0,0-.26.58Z" transform="translate(-145.51 -185.67)"/><path class="cls-1" d="M280.28,326.94a3.3,3.3,0,0,0,.42.1l.63.1a4.84,4.84,0,0,0,.63,0l-1.68.16Zm9.28.24v.64h-9.28v-.64Zm-7.65.59v.05a1.44,1.44,0,0,0-1.08.42,1.51,1.51,0,0,0-.37,1.08v.15h-.18v-1.7Zm1.87,8v1h-1.07v-.16h.16a.87.87,0,0,0,.62-.25.91.91,0,0,0,.26-.6Zm2.29-8.55v9.56h-2.32v-9.56Zm-.05,8.55h.05a.8.8,0,0,0,.27.6.88.88,0,0,0,.61.25h.18v.16H286Zm3.54-8.85v.4l-1.7-.16a5.18,5.18,0,0,0,.66,0c.23,0,.45-.06.64-.1A2,2,0,0,0,289.56,326.94Zm0,.83v1.7h-.18v-.15a1.43,1.43,0,0,0-.37-1.08,1.48,1.48,0,0,0-1.08-.42v-.05Z" transform="translate(-145.51 -185.67)"/><path class="cls-1" d="M291.57,328.2h-.05a.79.79,0,0,0-.25-.6.89.89,0,0,0-.61-.24h-.19v-.16h1.1Zm0,7.59v1h-1.1v-.16h.19a.9.9,0,0,0,.61-.25.82.82,0,0,0,.25-.6Zm2.26-8.59v9.6h-2.31v-9.6Zm4.35,4.49v.64h-4.5v-.64Zm-4.39-3.49v-1h1.09v.16h-.17a.85.85,0,0,0-.61.24.84.84,0,0,0-.27.6Zm0,7.59h0a.88.88,0,0,0,.27.6.86.86,0,0,0,.61.25h.17v.16h-1.09Zm4.29-7.59h0a.85.85,0,0,0-.88-.84H297v-.16h1.09Zm0,7.59v1H297v-.16h.18a.89.89,0,0,0,.62-.25.91.91,0,0,0,.26-.6Zm2.26-8.59v9.6h-2.29v-9.6Zm0,8.59h0a.91.91,0,0,0,.26.6.87.87,0,0,0,.62.25h.17v.16h-1.1Zm0-7.59v-1h1.1v.16h-.18a.88.88,0,0,0-.62.24.79.79,0,0,0-.26.6Z" transform="translate(-145.51 -185.67)"/><path class="cls-1" d="M303.49,328.2h0a.84.84,0,0,0-.27-.6.81.81,0,0,0-.6-.24h-.2v-.16h1.18Zm0,7.59.08,1h-1.18v-.16h.2a.82.82,0,0,0,.6-.25.88.88,0,0,0,.27-.6Zm2.27-8.59v9.6h-2.3v-9.6Zm3.92,0v.64h-3.95v-.64Zm-.72,4.52v.64h-3.23v-.64Zm.55,4.44.36.64h-4.14v-.64Zm1-2.31-.61,2.95h-2.77l.5-.64a2.64,2.64,0,0,0,1.22-.28,2.71,2.71,0,0,0,.92-.8,3.92,3.92,0,0,0,.6-1.23Zm-1.57-3.5v1.41h-1.37v0a1.17,1.17,0,0,0,.88-.37,1.27,1.27,0,0,0,.33-.89v-.11Zm0,2v1.41h-.16v-.13a1.25,1.25,0,0,0-.33-.88,1.21,1.21,0,0,0-.88-.37v0Zm.72-5.37v.38L308,327.2a5.67,5.67,0,0,0,1-.09A6.66,6.66,0,0,0,309.68,327Zm0,.84v1.7h-.16v-.14a1.57,1.57,0,0,0-.37-1.11,1.48,1.48,0,0,0-1.08-.41v0Z" transform="translate(-145.51 -185.67)"/><path class="cls-1" d="M318.56,328.19l-2.59-.05a2,2,0,0,0-.59-.56,1.55,1.55,0,0,0-.82-.22h-.19v-.16h4.86v.16h-.17a.53.53,0,0,0-.49.27A.52.52,0,0,0,318.56,328.19Zm-.56-1,3,5.2-2.13.24-3.5-5.44Zm.85,8.58v1h-1.14v-.16h.2a.89.89,0,0,0,.89-.85Zm2.26-3.35v4.36H318.8v-4.32Zm2.27-5.23h1.18L321,332.76l-.76-.14Zm-2.31,8.58h0a.88.88,0,0,0,.27.6.92.92,0,0,0,.62.25h.19v.16h-1.12Zm1.73-7.6a.5.5,0,0,0,0-.57.54.54,0,0,0-.48-.26h-.19v-.16h3.44v.16h-.21a1.46,1.46,0,0,0-.81.23,2,2,0,0,0-.6.55Z" transform="translate(-145.51 -185.67)"/><path class="cls-1" d="M327.07,328.2h0a.84.84,0,0,0-.27-.6.81.81,0,0,0-.6-.24H326v-.16h1.19Zm0,7.59.08,1H326v-.16h.21a.82.82,0,0,0,.6-.25.88.88,0,0,0,.27-.6Zm2.27-8.59v9.6H327v-9.6Zm3.92,0v.64h-3.95v-.64Zm-.72,4.52v.64h-3.23v-.64Zm.54,4.44.37.64h-4.14v-.64Zm1-2.31-.61,2.95h-2.77l.5-.64a2.67,2.67,0,0,0,1.22-.28,2.71,2.71,0,0,0,.92-.8,3.7,3.7,0,0,0,.59-1.23Zm-1.57-3.5v1.41h-1.38v0a1.18,1.18,0,0,0,.89-.37,1.27,1.27,0,0,0,.33-.89v-.11Zm0,2v1.41h-.16v-.13a1.25,1.25,0,0,0-.33-.88,1.22,1.22,0,0,0-.89-.37v0Zm.72-5.37v.38l-1.68-.14a5.76,5.76,0,0,0,1-.09A6.66,6.66,0,0,0,333.26,327Zm0,.84v1.7h-.16v-.14a1.57,1.57,0,0,0-.38-1.11,1.48,1.48,0,0,0-1.08-.41v0Z" transform="translate(-145.51 -185.67)"/><path class="cls-1" d="M336.73,335.74c-.11.29-.1.51,0,.66a.68.68,0,0,0,.5.24h.13v.16h-3.2v-.16h.12a1.42,1.42,0,0,0,.68-.2,1.52,1.52,0,0,0,.57-.7Zm3-9,0,1.92-3.47,8.07h-1.18l3.74-8.05a3,3,0,0,1,.15-.34l.24-.56q.12-.32.24-.6a1.73,1.73,0,0,0,.12-.44Zm1.39,6.9v.62h-4.08v-.62Zm-1.39-6.9,4.74,10h-2.71l-3-7Zm1.63,9H344a1.56,1.56,0,0,0,.6.7,1.36,1.36,0,0,0,.67.2h.13v.16H340.7v-.16h.13a.68.68,0,0,0,.5-.24A.59.59,0,0,0,341.37,335.74Z" transform="translate(-145.51 -185.67)"/><path class="cls-1" d="M347.07,328.19h0a.84.84,0,0,0-.26-.6.81.81,0,0,0-.58-.23H346v-.16h1.15Zm0,7.6.06,1H346v-.16h.19a.86.86,0,0,0,.6-.25.91.91,0,0,0,.26-.6Zm2.27-8.59v9.6H347v-9.6Zm1.57,0a6.11,6.11,0,0,1,1.28.13,4.07,4.07,0,0,1,1.12.43,2.33,2.33,0,0,1,.79.8,2.55,2.55,0,0,1,.29,1.26,2.76,2.76,0,0,1-.23,1.11,2.3,2.3,0,0,1-.72.95,2.54,2.54,0,0,1-1.27.53,2.28,2.28,0,0,1,.89.56,4.84,4.84,0,0,1,.66.79c0,.08.12.22.23.4s.24.4.4.64l.52.75a5.49,5.49,0,0,0,.56.66,1.36,1.36,0,0,0,.5.33,1.78,1.78,0,0,0,.59.1v.16h-1.34a7.56,7.56,0,0,1-1.47-.13,2.6,2.6,0,0,1-1-.47,3.6,3.6,0,0,1-.8-.94c-.1-.14-.2-.31-.31-.5l-.32-.6a6.37,6.37,0,0,1-.28-.6,4.84,4.84,0,0,1-.17-.48,1.89,1.89,0,0,0-.47-.74.78.78,0,0,0-.49-.23V332h.4a1.93,1.93,0,0,0,.67-.12,1.35,1.35,0,0,0,.6-.46,2.44,2.44,0,0,0,.4-1,1.19,1.19,0,0,0,.05-.27,1.74,1.74,0,0,0,0-.4,2.43,2.43,0,0,0-.21-.95,1.46,1.46,0,0,0-.46-.54,1.72,1.72,0,0,0-.55-.26,1.92,1.92,0,0,0-.49-.07,5.22,5.22,0,0,0-.55,0,2.13,2.13,0,0,1-.38,0s0-.05-.05-.17l-.09-.48Zm-1.6,8.59h0a.75.75,0,0,0,.28.62.92.92,0,0,0,.6.23h.16v.16h-1.15Z" transform="translate(-145.51 -185.67)"/><path class="cls-1" d="M366.06,327a7.39,7.39,0,0,1,2.32.34,5.13,5.13,0,0,1,1.79,1,4.48,4.48,0,0,1,1.16,1.59,5.13,5.13,0,0,1,.41,2.09,5.06,5.06,0,0,1-.41,2.07,4.44,4.44,0,0,1-1.16,1.58,5.13,5.13,0,0,1-1.79,1,8.05,8.05,0,0,1-4.63,0,5.13,5.13,0,0,1-1.79-1,4.42,4.42,0,0,1-1.15-1.58,5.06,5.06,0,0,1-.4-2.07,5.13,5.13,0,0,1,.4-2.09,4.45,4.45,0,0,1,1.15-1.59,5.13,5.13,0,0,1,1.79-1A7.32,7.32,0,0,1,366.06,327Zm0,9.39a2.76,2.76,0,0,0,1.7-.54,3.3,3.3,0,0,0,1.12-1.51,6.22,6.22,0,0,0,.39-2.32,6.33,6.33,0,0,0-.39-2.34,3.33,3.33,0,0,0-1.12-1.52,2.76,2.76,0,0,0-1.7-.54,2.72,2.72,0,0,0-1.68.54,3.41,3.41,0,0,0-1.12,1.52,6.13,6.13,0,0,0-.4,2.34,6,6,0,0,0,.4,2.32,3.38,3.38,0,0,0,1.12,1.51A2.72,2.72,0,0,0,366.06,336.38Z" transform="translate(-145.51 -185.67)"/><path class="cls-1" d="M373.59,328.2h0a.79.79,0,0,0-.25-.6.87.87,0,0,0-.61-.24h-.21v-.16h1.18Zm0,7.59.06,1h-1.18v-.16h.21a.88.88,0,0,0,.61-.25.82.82,0,0,0,.25-.6Zm2.26-8.59v9.6h-2.31v-9.6Zm0,8.59h0a.87.87,0,0,0,.88.85h.2v.16h-1.17Zm4-8.59v.64h-4v-.64Zm-.74,4.52v.64h-3.25v-.64Zm0-1.37v1.41h-1.39v0a1.19,1.19,0,0,0,.9-.37,1.27,1.27,0,0,0,.33-.89v-.11Zm0,2v1.41h-.16v-.13a1.25,1.25,0,0,0-.33-.88,1.22,1.22,0,0,0-.9-.37v0Zm.74-5.37v.38l-1.7-.14c.2,0,.42,0,.65,0l.63-.1Zm0,.83v1.73h-.18v-.16a1.56,1.56,0,0,0-.37-1.1,1.48,1.48,0,0,0-1.1-.42v0Z" transform="translate(-145.51 -185.67)"/><path class="cls-1" d="M394.63,332.78l.18,2.42a3.49,3.49,0,0,1-.85.92,4.45,4.45,0,0,1-1.33.64,6.22,6.22,0,0,1-1.82.24,7.6,7.6,0,0,1-3.09-.6,4.47,4.47,0,0,1-2-1.71,5.57,5.57,0,0,1,0-5.39,4.49,4.49,0,0,1,2-1.71,7.37,7.37,0,0,1,3.11-.6,9.21,9.21,0,0,1,2,.21,6.47,6.47,0,0,1,1.56.52l0,2.55h-.13a3.15,3.15,0,0,0-3.31-2.66,3.14,3.14,0,0,0-3.12,2.07,6.12,6.12,0,0,0-.39,2.28,6.21,6.21,0,0,0,.39,2.31,3.37,3.37,0,0,0,1.15,1.52,3.17,3.17,0,0,0,1.81.57,4.35,4.35,0,0,0,1.88-.35,2.62,2.62,0,0,0,1.18-1.13,6.37,6.37,0,0,0,.63-2.1Z" transform="translate(-145.51 -185.67)"/><path class="cls-1" d="M396.89,328.2h-.05a.79.79,0,0,0-.25-.6.87.87,0,0,0-.61-.24h-.19v-.16h1.1Zm0,7.59v1h-1.1v-.16H396a.88.88,0,0,0,.61-.25.82.82,0,0,0,.25-.6Zm2.26-8.59v9.6h-2.31v-9.6Zm4.35,4.49v.64H399v-.64Zm-4.39-3.49v-1h1.09v.16H400a.85.85,0,0,0-.61.24.84.84,0,0,0-.27.6Zm0,7.59h0a.88.88,0,0,0,.27.6.86.86,0,0,0,.61.25h.17v.16h-1.09Zm4.29-7.59h0a.87.87,0,0,0-.26-.6.86.86,0,0,0-.62-.24h-.18v-.16h1.09Zm0,7.59v1h-1.09v-.16h.18a.87.87,0,0,0,.62-.25.91.91,0,0,0,.26-.6Zm2.26-8.59v9.6h-2.29v-9.6Zm-.05,8.59h.05a.91.91,0,0,0,.26.6.87.87,0,0,0,.62.25h.17v.16h-1.1Zm0-7.59v-1h1.1v.16h-.18a.88.88,0,0,0-.62.24.79.79,0,0,0-.26.6Z" transform="translate(-145.51 -185.67)"/><path class="cls-1" d="M409.74,335.74a.57.57,0,0,0,.05.66.66.66,0,0,0,.5.24h.12v.16h-3.2v-.16h.13a1.39,1.39,0,0,0,.67-.2,1.47,1.47,0,0,0,.58-.7Zm3-9,0,1.92-3.47,8.07h-1.18l3.74-8.05c0-.06.07-.18.14-.34s.16-.36.24-.56.17-.41.24-.6a1.46,1.46,0,0,0,.13-.44Zm1.39,6.9v.62h-4.08v-.62Zm-1.39-6.9,4.74,10h-2.71l-3-7Zm1.63,9H417a1.61,1.61,0,0,0,.59.7,1.42,1.42,0,0,0,.68.2h.12v.16h-4.7v-.16h.13a.66.66,0,0,0,.49-.24A.57.57,0,0,0,414.38,335.74Z" transform="translate(-145.51 -185.67)"/><path class="cls-1" d="M423.42,327a7.39,7.39,0,0,1,2.32.34,5.13,5.13,0,0,1,1.79,1,4.48,4.48,0,0,1,1.16,1.59,5.13,5.13,0,0,1,.41,2.09,5.06,5.06,0,0,1-.41,2.07,4.44,4.44,0,0,1-1.16,1.58,5.13,5.13,0,0,1-1.79,1,8.05,8.05,0,0,1-4.63,0,5.13,5.13,0,0,1-1.79-1,4.3,4.3,0,0,1-1.15-1.58,5.06,5.06,0,0,1-.4-2.07,5.13,5.13,0,0,1,.4-2.09,4.34,4.34,0,0,1,1.15-1.59,5.13,5.13,0,0,1,1.79-1A7.32,7.32,0,0,1,423.42,327Zm0,9.39a2.78,2.78,0,0,0,1.7-.54,3.3,3.3,0,0,0,1.12-1.51,6.22,6.22,0,0,0,.39-2.32,6.33,6.33,0,0,0-.39-2.34,3.33,3.33,0,0,0-1.12-1.52,2.78,2.78,0,0,0-1.7-.54,2.72,2.72,0,0,0-1.68.54,3.41,3.41,0,0,0-1.12,1.52,6.13,6.13,0,0,0-.4,2.34,6,6,0,0,0,.4,2.32,3.38,3.38,0,0,0,1.12,1.51A2.72,2.72,0,0,0,423.42,336.38Z" transform="translate(-145.51 -185.67)"/><path class="cls-1" d="M433.29,327l.78,0,.9.07c.3,0,.57.06.8.1a4.28,4.28,0,0,1,.47.1l-.21,1.95h-.14a1.43,1.43,0,0,0-.52-1.16,2.21,2.21,0,0,0-1.47-.44,2.14,2.14,0,0,0-1.24.34,1.13,1.13,0,0,0-.5.9.84.84,0,0,0,.1.52,1.24,1.24,0,0,0,.39.4,5.25,5.25,0,0,0,.55.36l2.51,1.55a2.39,2.39,0,0,1,1,.93,2.55,2.55,0,0,1,.32,1.47,2.81,2.81,0,0,1-1.82,2.55,5,5,0,0,1-1.94.34,6.43,6.43,0,0,1-1.28-.11,4.12,4.12,0,0,1-1-.3,2.09,2.09,0,0,1-.65-.43,2.07,2.07,0,0,1-.11-.78,3.61,3.61,0,0,1,.15-.91,2.56,2.56,0,0,1,.32-.76h.12a2.51,2.51,0,0,0,.27,1.33,2.36,2.36,0,0,0,.92,1,2.79,2.79,0,0,0,1.45.36,2,2,0,0,0,1.4-.43,1.36,1.36,0,0,0,.46-1,1.18,1.18,0,0,0-.28-.77,2.88,2.88,0,0,0-.92-.68L431.84,332a2.6,2.6,0,0,1-1.16-1.11,2.55,2.55,0,0,1-.27-1.5,2.84,2.84,0,0,1,.46-1.31,2.4,2.4,0,0,1,1-.83A3.25,3.25,0,0,1,433.29,327Zm2.95.14,0,.29h-1.71v-.29Z" transform="translate(-145.51 -185.67)"/><path class="cls-1" d="M145.51,280.56a5.5,5.5,0,0,0,1,.26c.44.09.92.16,1.46.22a11.23,11.23,0,0,0,1.47.1l-3.9.35Zm20.48.58v1.34H145.51v-1.34Zm-16.93,1.25v.09a3.3,3.3,0,0,0-2.35.92,3.19,3.19,0,0,0-.88,2.38v.35l-.32,0v-3.77Zm4.38,18.85v2.33h-2.56v-.32h.42a2,2,0,0,0,1.42-.59,2.07,2.07,0,0,0,.63-1.42Zm4.71-20v22.3h-4.8v-22.3Zm-.1,20h.1a2.06,2.06,0,0,0,.62,1.42,2,2,0,0,0,1.42.59h.42v.32h-2.56ZM166,280.56v.93l-3.91-.35a11.18,11.18,0,0,0,1.49-.1c.52-.06,1-.13,1.46-.22A5.11,5.11,0,0,0,166,280.56Zm0,1.83v3.77l-.32,0v-.35a3.23,3.23,0,0,0-.88-2.38,3.38,3.38,0,0,0-2.39-.92v-.09Z" transform="translate(-145.51 -185.67)"/><path class="cls-1" d="M170.05,286.39H170a1.58,1.58,0,0,0-.52-1.22,1.7,1.7,0,0,0-1.21-.48h-.39v-.32h2.21Zm0,15.17v2h-2.21v-.32h.39a1.67,1.67,0,0,0,1.21-.49,1.58,1.58,0,0,0,.52-1.2Zm4.51-17.19v19.2H170v-19.2Zm8.71,9v1.28h-9v-1.28Zm-8.77-7v-2h2.18v.32h-.36a1.72,1.72,0,0,0-1.21.48,1.76,1.76,0,0,0-.55,1.22Zm0,15.17h.06a1.77,1.77,0,0,0,.55,1.2,1.68,1.68,0,0,0,1.21.49h.36v.32H174.5Zm8.58-15.17H183a1.72,1.72,0,0,0-1.76-1.7h-.35v-.32h2.18Zm0,15.17v2H180.9v-.32h.35a1.67,1.67,0,0,0,1.23-.49,1.71,1.71,0,0,0,.53-1.2Zm4.51-17.19v19.2H183v-19.2Zm-.1,17.19h.1a1.75,1.75,0,0,0,.53,1.2,1.67,1.67,0,0,0,1.23.49h.35v.32h-2.21Zm0-15.17v-2h2.21v.32h-.35a1.76,1.76,0,0,0-1.25.48,1.61,1.61,0,0,0-.51,1.22Z" transform="translate(-145.51 -185.67)"/><path class="cls-1" d="M193.71,286.39h-.06a1.74,1.74,0,0,0-.53-1.22,1.66,1.66,0,0,0-1.2-.48h-.41v-.32h2.36Zm0,15.17.16,2h-2.36v-.32h.41a1.63,1.63,0,0,0,1.2-.49,1.75,1.75,0,0,0,.53-1.2Zm4.55-17.19v19.2h-4.61v-19.2Zm7.84,0v1.28h-7.91v-1.28Zm-1.44,9.06v1.28h-6.47v-1.28Zm1.09,8.86.73,1.28h-8.29v-1.28Zm2-4.61-1.21,5.89H201l1-1.28a5.12,5.12,0,0,0,2.45-.56,5.19,5.19,0,0,0,1.84-1.6,7.87,7.87,0,0,0,1.19-2.45Zm-3.13-7v2.81h-2.75v-.06a2.38,2.38,0,0,0,1.77-.75,2.55,2.55,0,0,0,.66-1.78v-.22Zm0,4v2.82h-.32v-.26a2.48,2.48,0,0,0-.66-1.76,2.4,2.4,0,0,0-1.77-.73v-.07Zm1.44-10.75v.77l-3.36-.29a12.25,12.25,0,0,0,1.95-.17A10.89,10.89,0,0,0,206.1,283.89Zm0,1.7V289h-.32v-.29a3.11,3.11,0,0,0-.75-2.21,3,3,0,0,0-2.16-.83v-.06Z" transform="translate(-145.51 -185.67)"/><path class="cls-1" d="M225.33,280.72c.43,0,.95,0,1.58.07s1.28.1,2,.17,1.25.15,1.76.23a4.21,4.21,0,0,1,1,.24l-.39,4.32H231a3.27,3.27,0,0,0-1.23-2.67,5,5,0,0,0-3.28-1,4.71,4.71,0,0,0-3,.89,2.88,2.88,0,0,0-1.2,2.18,2.26,2.26,0,0,0,.61,1.66,7.43,7.43,0,0,0,1.63,1.32l6.11,4a5.46,5.46,0,0,1,2.88,5.32,6.3,6.3,0,0,1-2.4,4.88A9.66,9.66,0,0,1,225,304a15.43,15.43,0,0,1-2.74-.24,11.08,11.08,0,0,1-2.35-.67,5.14,5.14,0,0,1-1.63-1,4.42,4.42,0,0,1-.22-1.7,8.89,8.89,0,0,1,.3-2,6.13,6.13,0,0,1,.69-1.7h.29a5.44,5.44,0,0,0,.59,3,5.34,5.34,0,0,0,2.11,2.21,6.18,6.18,0,0,0,3.31.79,4.85,4.85,0,0,0,3.27-1.08,3.28,3.28,0,0,0,1.15-2.51,3,3,0,0,0-.59-1.79,6,6,0,0,0-1.94-1.54l-5.6-3.71a5.94,5.94,0,0,1-2.46-2.46,5.78,5.78,0,0,1-.61-3.27,6.16,6.16,0,0,1,1-2.92,5.52,5.52,0,0,1,2.29-2A7.9,7.9,0,0,1,225.33,280.72Zm6.37.32-.07.68h-3.77V281Z" transform="translate(-145.51 -185.67)"/><path class="cls-1" d="M237.42,286.39h-.1a1.57,1.57,0,0,0-.54-1.22,1.89,1.89,0,0,0-1.28-.48h-.42v-.32h2.34Zm0,15.17v2h-2.34v-.32h.42a1.85,1.85,0,0,0,1.28-.49,1.57,1.57,0,0,0,.54-1.2Zm4.51-17.19v19.2h-4.61v-19.2Zm-.07,2v-2h2.31l0,.32h-.36a1.84,1.84,0,0,0-1.29.48,1.69,1.69,0,0,0-.56,1.22Zm0,15.17h.07a1.7,1.7,0,0,0,.56,1.2,1.81,1.81,0,0,0,1.29.49h.39v.32h-2.31Z" transform="translate(-145.51 -185.67)"/><path class="cls-1" d="M248.24,301.62v1.95h-2.37v-.32h.51a1.79,1.79,0,0,0,1.25-.46,1.52,1.52,0,0,0,.51-1.17Zm-.13-17.7,4.42,4.8v14.85h-4.39v-16a24,24,0,0,0-.32-3.65Zm0,0,18.78,16.52.32,3.55-18.75-16.51Zm4.42,17.7a1.61,1.61,0,0,0,.54,1.17,1.75,1.75,0,0,0,1.22.46h.54v.32h-2.37v-1.95Zm10.27-15.3a1.62,1.62,0,0,0-.53-1.16,1.73,1.73,0,0,0-1.23-.47h-.55v-.32h2.37v1.95Zm4.38-1.95v15.87c0,.75,0,1.41.08,2s.13,1.16.24,1.78h-.29l-4.41-5.09V284.37Zm-.09,1.95v-1.95h2.4v.32h-.55a1.8,1.8,0,0,0-1.23.47,1.48,1.48,0,0,0-.53,1.16Z" transform="translate(-145.51 -185.67)"/><path class="cls-1" d="M272.48,301.62v1.95h-2.36v-.32h.51a1.81,1.81,0,0,0,1.25-.46,1.52,1.52,0,0,0,.51-1.17Zm-.12-17.7,4.41,4.8v14.85h-4.38v-16a24,24,0,0,0-.32-3.65Zm0,0,18.78,16.52.32,3.55-18.75-16.51Zm4.41,17.7a1.59,1.59,0,0,0,.55,1.17,1.73,1.73,0,0,0,1.21.46h.55v.32h-2.37v-1.95ZM287,286.32a1.61,1.61,0,0,0-.52-1.16,1.76,1.76,0,0,0-1.24-.47h-.54v-.32h2.37v1.95Zm4.39-1.95v15.87a19.07,19.07,0,0,0,.08,2c.05.57.13,1.16.24,1.78h-.29L287,298.9V284.37Zm-.1,1.95v-1.95h2.4v.32h-.54a1.8,1.8,0,0,0-1.23.47,1.45,1.45,0,0,0-.53,1.16Z" transform="translate(-145.51 -185.67)"/><path class="cls-1" d="M297.59,286.39h-.06a1.74,1.74,0,0,0-.53-1.22,1.66,1.66,0,0,0-1.2-.48h-.41v-.32h2.36Zm0,15.17.16,2h-2.36v-.32h.41a1.63,1.63,0,0,0,1.2-.49,1.75,1.75,0,0,0,.53-1.2Zm4.55-17.19v19.2h-4.61v-19.2Zm7.84,0v1.28h-7.91v-1.28Zm-1.44,9.06v1.28h-6.47v-1.28Zm1.09,8.86.73,1.28h-8.29v-1.28Zm2-4.61-1.21,5.89h-5.54l1-1.28a5.12,5.12,0,0,0,2.45-.56,5.19,5.19,0,0,0,1.84-1.6,7.87,7.87,0,0,0,1.19-2.45Zm-3.13-7v2.81h-2.75v-.06a2.36,2.36,0,0,0,1.77-.75,2.55,2.55,0,0,0,.66-1.78v-.22Zm0,4v2.82h-.32v-.26a2.48,2.48,0,0,0-.66-1.76,2.38,2.38,0,0,0-1.77-.73v-.07ZM310,283.89v.77l-3.36-.29a12.25,12.25,0,0,0,1.95-.17A10.89,10.89,0,0,0,310,283.89Zm0,1.7V289h-.32v-.29a3.11,3.11,0,0,0-.75-2.21,3,3,0,0,0-2.16-.83v-.06Z" transform="translate(-145.51 -185.67)"/><path class="cls-1" d="M315.07,286.36H315a1.68,1.68,0,0,0-.53-1.2,1.65,1.65,0,0,0-1.16-.47h-.42v-.32h2.3Zm0,15.2.12,2h-2.3v-.32h.38a1.63,1.63,0,0,0,1.2-.49,1.75,1.75,0,0,0,.53-1.2Zm4.54-17.19v19.2H315v-19.2Zm3.14,0a12.16,12.16,0,0,1,2.56.27,7.63,7.63,0,0,1,2.24.87,4.41,4.41,0,0,1,1.58,1.6,4.93,4.93,0,0,1,.59,2.51,5.63,5.63,0,0,1-.46,2.22,4.94,4.94,0,0,1-1.44,1.91,5.3,5.3,0,0,1-2.55,1.05,4.61,4.61,0,0,1,1.78,1.12,9.67,9.67,0,0,1,1.33,1.57c.08.17.23.44.45.82s.48.8.81,1.28l1,1.49a11.7,11.7,0,0,0,1.12,1.32,3,3,0,0,0,1,.66,3.34,3.34,0,0,0,1.19.19v.32h-2.69a14.41,14.41,0,0,1-2.93-.25,5,5,0,0,1-2.08-.95,7.19,7.19,0,0,1-1.61-1.87,8.65,8.65,0,0,1-.61-1c-.22-.39-.43-.79-.64-1.2a12.46,12.46,0,0,1-.56-1.18,9,9,0,0,1-.34-1,4,4,0,0,0-.94-1.49,1.53,1.53,0,0,0-1-.46v-.29h.8a3.85,3.85,0,0,0,1.33-.24,2.73,2.73,0,0,0,1.2-.93,4.75,4.75,0,0,0,.8-2,3.28,3.28,0,0,0,.11-.55,4.12,4.12,0,0,0,0-.8,5,5,0,0,0-.43-1.9,2.86,2.86,0,0,0-.92-1.09,3.78,3.78,0,0,0-2.08-.65,10.4,10.4,0,0,0-1.1,0,4.14,4.14,0,0,1-.75,0s-.06-.11-.1-.33-.1-.55-.19-1Zm-3.2,17.19h.06a1.5,1.5,0,0,0,.56,1.24,1.87,1.87,0,0,0,1.2.45h.32v.32h-2.3Z" transform="translate(-145.51 -185.67)"/><path class="cls-1" d="M340.9,284c.43,0,1,0,1.55.06l1.81.14c.6.06,1.13.12,1.59.2a5.8,5.8,0,0,1,.94.2l-.42,3.91h-.28a2.9,2.9,0,0,0-1-2.34,4.46,4.46,0,0,0-2.94-.86,4.16,4.16,0,0,0-2.48.67,2.27,2.27,0,0,0-1,1.79,1.66,1.66,0,0,0,.21,1,2.71,2.71,0,0,0,.77.82c.33.23.7.47,1.1.7l5,3.11a4.79,4.79,0,0,1,2,1.85,5.07,5.07,0,0,1,.64,2.95,5.67,5.67,0,0,1-1,3.1,5.94,5.94,0,0,1-2.59,2,10.05,10.05,0,0,1-3.89.69,13.69,13.69,0,0,1-2.56-.23,9.26,9.26,0,0,1-2-.6,4.08,4.08,0,0,1-1.3-.87,3.82,3.82,0,0,1-.22-1.55,7.59,7.59,0,0,1,.29-1.82,5.52,5.52,0,0,1,.64-1.52h.25a5,5,0,0,0,.53,2.65,4.77,4.77,0,0,0,1.84,1.94,5.61,5.61,0,0,0,2.91.72,4,4,0,0,0,2.79-.87,2.64,2.64,0,0,0,.92-2,2.33,2.33,0,0,0-.56-1.55,5.65,5.65,0,0,0-1.84-1.36L338,294a5.24,5.24,0,0,1-2.32-2.21,5.06,5.06,0,0,1-.53-3,5.57,5.57,0,0,1,.91-2.62,4.94,4.94,0,0,1,2-1.67A6.81,6.81,0,0,1,340.9,284Zm5.89.28,0,.58h-3.43v-.58Z" transform="translate(-145.51 -185.67)"/><path class="cls-1" d="M361.77,283.51h-.1a1.91,1.91,0,0,0-.61-1.43,2,2,0,0,0-1.44-.59h-.38l0-.32h2.56Zm0,17.73v2.33h-2.56v-.32h.41a2,2,0,0,0,1.43-.59,2.06,2.06,0,0,0,.62-1.42Zm4.7-20.07v22.4h-4.8v-22.4Zm3.42,0a10.68,10.68,0,0,1,4.47.8,5.85,5.85,0,0,1,2.56,2.19,6.44,6.44,0,0,1,.91,3.16,6.59,6.59,0,0,1-.54,3,6.28,6.28,0,0,1-1.67,2.24,6.56,6.56,0,0,1-2.41,1.3,6.68,6.68,0,0,1-2.82.19,7.1,7.1,0,0,1-2.83-1.1v-.32a7.47,7.47,0,0,0,1.42-.13,5.37,5.37,0,0,0,1.31-.48,4.2,4.2,0,0,0,1.3-1.09,5.06,5.06,0,0,0,.93-1.95,4.9,4.9,0,0,0,.17-.95,5.32,5.32,0,0,0,0-1,5,5,0,0,0-1.1-3.28,3.82,3.82,0,0,0-3-1.23h-2.2l-.33-1.35Zm-3.51,20.07h.09a2.06,2.06,0,0,0,.62,1.42,2,2,0,0,0,1.43.59h.41v.32h-2.55Z" transform="translate(-145.51 -185.67)"/><path class="cls-1" d="M381.94,286.36h-.06a1.72,1.72,0,0,0-.53-1.2,1.66,1.66,0,0,0-1.17-.47h-.42v-.32h2.31Zm0,15.2.13,2h-2.31v-.32h.39a1.63,1.63,0,0,0,1.2-.49,1.8,1.8,0,0,0,.53-1.2Zm4.54-17.19v19.2h-4.64v-19.2Zm3.14,0a12.09,12.09,0,0,1,2.56.27,7.52,7.52,0,0,1,2.24.87,4.41,4.41,0,0,1,1.58,1.6,4.83,4.83,0,0,1,.59,2.51,5.63,5.63,0,0,1-.46,2.22,4.94,4.94,0,0,1-1.44,1.91,5.3,5.3,0,0,1-2.54,1.05,4.51,4.51,0,0,1,1.77,1.12,9.67,9.67,0,0,1,1.33,1.57l.45.82c.21.37.48.8.82,1.28l1,1.49a12.85,12.85,0,0,0,1.12,1.32,3.09,3.09,0,0,0,1,.66,3.28,3.28,0,0,0,1.18.19v.32h-2.69a14.3,14.3,0,0,1-2.92-.25,5,5,0,0,1-2.08-.95,7,7,0,0,1-1.62-1.87,10.29,10.29,0,0,1-.61-1c-.21-.39-.43-.79-.64-1.2s-.4-.8-.56-1.18a6.91,6.91,0,0,1-.33-1,4,4,0,0,0-.95-1.49,1.53,1.53,0,0,0-1-.46v-.29h.8a3.8,3.8,0,0,0,1.32-.24,2.73,2.73,0,0,0,1.2-.93,4.62,4.62,0,0,0,.8-2,2.51,2.51,0,0,0,.11-.55,3.46,3.46,0,0,0,0-.8,4.8,4.8,0,0,0-.43-1.9,2.93,2.93,0,0,0-.91-1.09,3.81,3.81,0,0,0-1.11-.51,3.77,3.77,0,0,0-1-.14,10.63,10.63,0,0,0-1.11,0,4.14,4.14,0,0,1-.75,0s-.05-.11-.09-.33-.11-.55-.2-1Zm-3.2,17.19h.06a1.5,1.5,0,0,0,.56,1.24,1.91,1.91,0,0,0,1.2.45h.32v.32h-2.3Z" transform="translate(-145.51 -185.67)"/><path class="cls-1" d="M410.61,284a14.93,14.93,0,0,1,4.64.68,10.46,10.46,0,0,1,3.59,2,9,9,0,0,1,2.32,3.17A10.4,10.4,0,0,1,422,294a10.21,10.21,0,0,1-.81,4.15,9,9,0,0,1-2.32,3.15,10.46,10.46,0,0,1-3.59,2,15.81,15.81,0,0,1-9.24,0,10.37,10.37,0,0,1-3.59-2,8.68,8.68,0,0,1-2.3-3.15,10.21,10.21,0,0,1-.8-4.15,10.4,10.4,0,0,1,.8-4.19,8.75,8.75,0,0,1,2.3-3.17,10.37,10.37,0,0,1,3.59-2A14.81,14.81,0,0,1,410.61,284Zm0,18.78a5.61,5.61,0,0,0,3.41-1.07,6.76,6.76,0,0,0,2.24-3,12.24,12.24,0,0,0,.79-4.64,12.46,12.46,0,0,0-.79-4.68,6.69,6.69,0,0,0-2.24-3,5.55,5.55,0,0,0-3.41-1.08,5.45,5.45,0,0,0-3.36,1.08,6.91,6.91,0,0,0-2.24,3,12.45,12.45,0,0,0-.8,4.68,12.23,12.23,0,0,0,.8,4.64,7,7,0,0,0,2.24,3A5.5,5.5,0,0,0,410.61,302.74Z" transform="translate(-145.51 -185.67)"/><path class="cls-1" d="M425.48,286.39h-.06a1.69,1.69,0,0,0-.56-1.22,1.8,1.8,0,0,0-1.26-.48h-.39v-.32h2.27Zm0,15.13v2.05h-2.31v-.32h.42a1.74,1.74,0,0,0,1.26-.51,1.65,1.65,0,0,0,.53-1.22ZM430,284.37v19.2h-4.61v-19.2Zm4,0a14,14,0,0,1,5.89,1.14,8.38,8.38,0,0,1,3.77,3.29A9.74,9.74,0,0,1,445,294a9.62,9.62,0,0,1-1.31,5.15,8.52,8.52,0,0,1-3.77,3.3,13.82,13.82,0,0,1-5.89,1.15h-7.11l-.06-1.28h6.78a5.67,5.67,0,0,0,4.74-2.21,9.69,9.69,0,0,0,1.73-6.11,9.79,9.79,0,0,0-1.73-6.13,5.67,5.67,0,0,0-4.74-2.22h-7.1v-1.25Z" transform="translate(-145.51 -185.67)"/><path class="cls-1" d="M448.5,286.39h-.09a1.57,1.57,0,0,0-.55-1.22,1.87,1.87,0,0,0-1.28-.48h-.41v-.32h2.33Zm0,15.17v2h-2.33v-.32h.41a1.83,1.83,0,0,0,1.28-.49,1.58,1.58,0,0,0,.55-1.2ZM453,284.37v19.2h-4.6v-19.2Zm-.06,2v-2h2.3l0,.32h-.35a1.87,1.87,0,0,0-1.3.48,1.69,1.69,0,0,0-.56,1.22Zm0,15.17H453a1.7,1.7,0,0,0,.56,1.2,1.83,1.83,0,0,0,1.3.49h.38v.32H453Z" transform="translate(-145.51 -185.67)"/><path class="cls-1" d="M467.17,284a24.72,24.72,0,0,1,3,.17,21.86,21.86,0,0,1,2.78.51,11.7,11.7,0,0,1,2.19.79v5.09h-.25a7.64,7.64,0,0,0-1.52-3.2,5.72,5.72,0,0,0-2.32-1.64,8.28,8.28,0,0,0-2.85-.48,6.57,6.57,0,0,0-3.78,1.06,6.4,6.4,0,0,0-2.32,3.06,15.28,15.28,0,0,0-.08,9.39,6.37,6.37,0,0,0,2.08,3,5.28,5.28,0,0,0,3.33,1.06,5.56,5.56,0,0,0,1.95-.34,4.61,4.61,0,0,0,1.63-1,3.64,3.64,0,0,0,1-1.61l0-3.84a1.18,1.18,0,0,0-.37-1,1.51,1.51,0,0,0-1-.32h-.45v-.29h8.23v.29H478c-.94,0-1.4.42-1.38,1.28v4.25a7.15,7.15,0,0,1-2.08,1.76,13.72,13.72,0,0,1-3.32,1.44,14.36,14.36,0,0,1-4.2.58,12.38,12.38,0,0,1-5.56-1.23,8.74,8.74,0,0,1-3.68-3.44,10.44,10.44,0,0,1-1.32-5.38,10.32,10.32,0,0,1,1.32-5.36,8.72,8.72,0,0,1,3.71-3.42A12.68,12.68,0,0,1,467.17,284Z" transform="translate(-145.51 -185.67)"/><path class="cls-1" d="M485.13,286.36l-5.19-.1a3.62,3.62,0,0,0-1.18-1.12,3.05,3.05,0,0,0-1.63-.45h-.39v-.32h9.73v.32h-.35a1.08,1.08,0,0,0-1,.55A1.05,1.05,0,0,0,485.13,286.36Zm-1.12-2,6,10.4-4.25.48-7-10.88Zm1.69,17.16v2h-2.27v-.32h.39a1.78,1.78,0,0,0,1.79-1.69Zm4.52-6.69v8.7h-4.61v-8.64Zm4.54-10.47h2.37l-7.23,11.11-1.51-.29Zm-4.61,17.16h.07a1.66,1.66,0,0,0,.56,1.2,1.73,1.73,0,0,0,1.23.49h.38v.32h-2.24Zm3.46-15.2a1,1,0,0,0,0-1.14,1.12,1.12,0,0,0-1-.53h-.39v-.32h6.88v.32h-.41a3,3,0,0,0-1.62.47,4,4,0,0,0-1.2,1.1Z" transform="translate(-145.51 -185.67)"/><path class="cls-1" d="M339.77,207.46v-.17a21.67,21.67,0,0,1,.53-4.62,6.94,6.94,0,0,1,1-2.18,2.53,2.53,0,0,0-1.08-.46,7.08,7.08,0,0,0-1.13-.09,12.31,12.31,0,0,1-4.07-.88,19.81,19.81,0,0,1-3.87-1.89,1.27,1.27,0,0,0-1.91,0c-2.18,1.85-3.78,4.27-5.88,6.21a19.27,19.27,0,0,0-3.34-2.12,2.86,2.86,0,0,1-.91-.75,3,3,0,0,1-.44-1.56,41.64,41.64,0,0,1,0-5.24,2.7,2.7,0,0,1,.36-1.52l3.94,2.4a17,17,0,0,0,3.12,1.61,5.66,5.66,0,0,0,4.13,0A10.44,10.44,0,0,0,332.1,195a27.47,27.47,0,0,0,4.79-3.81.19.19,0,0,0,.07-.12.21.21,0,0,0-.08-.15,2.18,2.18,0,0,0-1.11-.61,13,13,0,0,0-2.07-.16,9.69,9.69,0,0,1-3.11-.64,10.8,10.8,0,0,1-2.71-1.58,12.74,12.74,0,0,1-1.62-1.58,1.55,1.55,0,0,0-1.09-.7,2,2,0,0,0-.89.38c-1,.61-1.82,1.35-2.75,2a23.77,23.77,0,0,1-3.09,1.78l-.62.29a22.14,22.14,0,0,1-6.23,1.74,7.52,7.52,0,0,0-1.49.27,3.41,3.41,0,0,0-.64.3c-.16.1-.5.32-.52.51a2.13,2.13,0,0,0,.17.43l.15.41c.08.25.15.5.21.76.1.49.19,1,.25,1.43a9.59,9.59,0,0,1,.1,1.42v3.37c0,.55,0,1.11-.07,1.67a15.11,15.11,0,0,1-1,3.18.47.47,0,0,0,.16.64l.12,0c1.66.79,3.53,1.14,5.09,2.11a10.38,10.38,0,0,1,3.4,3.94,1.16,1.16,0,0,0,.32.44.9.9,0,0,0,1,0,2.69,2.69,0,0,0,.75-.79,47.8,47.8,0,0,1,5.34-6.11.81.81,0,0,1,1-.28,16.14,16.14,0,0,1,4.21,1.55,1.12,1.12,0,0,1,.48.38,1,1,0,0,1,.09.55c0,2.65,0,5.3.06,7.94a8.12,8.12,0,0,1,0,2,2.92,2.92,0,0,1-1,1.48c-1.18,1.1-2.39,2.19-3.58,3.29a13,13,0,0,1-1.14-.95c-.38-.34-.79-.7-1.17-1.07-.76-.73-1.51-1.48-2.31-2.19-3.84-3.47-8.42-6.09-12-9.85a9.09,9.09,0,0,1-2.79-5.12,4.53,4.53,0,0,0-.57-2.56c-.79-.93-1.39.41-1.58,1.07a15.64,15.64,0,0,0-.41,1.8,18.13,18.13,0,0,1-.32,1.79l-.51,2.4c-.17.82-.31,1.53-.44,2.15a4.21,4.21,0,0,0-.14,1.54,5.49,5.49,0,0,0,.9,1.77,5.24,5.24,0,0,1,.51,1.16,12.31,12.31,0,0,1,.44,3c.05.83.18,1.65.21,2.48l.12,6.68v9.24a13.17,13.17,0,0,1-.07,1.66,7.68,7.68,0,0,1-1.47,3.4l-.26.48-.07.32v.35l.1.38.27.34c.27.36.89.56,1.25.84a9.4,9.4,0,0,1,1.31,1.29,20.81,20.81,0,0,1,1.44,2,9,9,0,0,0,.86,1.34,3.4,3.4,0,0,0,.7.55.21.21,0,0,0,.28,0,.48.48,0,0,0,.12-.16c.2-.31.38-.62.58-.95l.57-1.06a8.18,8.18,0,0,1,1.19-1.61c.57-.54,1.32-.89,1.94-1.38s1.45-1.44,1-2.21a2,2,0,0,0-.4-.42,4.46,4.46,0,0,1-1.1-2.09,14.2,14.2,0,0,1-.28-3l-.15-13.05c.56.51,1.1,1,1.62,1.43l2,1.73A13.61,13.61,0,0,1,319,229c.66.94,1.31,1.93,1.95,3a1.29,1.29,0,0,0,1.21.67,2,2,0,0,0,1.72-.91q1.08-1.63,2.67-3.68a20,20,0,0,1,3.19-3.31,47.6,47.6,0,0,1,7.85-5.62c.71-.36,1.44-.66,2.15-1,.38-.19.72-.38,1.06-.59s.3-.23.35-.55a2.25,2.25,0,0,0-.19-.53c-.07-.21-.14-.42-.2-.63q-.18-.61-.33-1.23a20.57,20.57,0,0,1-.43-2.47A35.69,35.69,0,0,1,339.77,207.46Z" transform="translate(-145.51 -185.67)"/><path class="cls-1" d="M278.85,344.71h0a.38.38,0,0,0-.13-.3.41.41,0,0,0-.3-.12h-.1v-.08h.59Zm0,3.8,0,.5h-.59v-.08h.1a.43.43,0,0,0,.43-.42Zm1.12-4.3V349h-1.15v-4.8Zm0,4.3h0a.47.47,0,0,0,.14.3.41.41,0,0,0,.3.12h.11V349h-.58Zm2-4.3v.32h-2v-.32Zm-.37,2.26v.32H280v-.32Zm0-.68v.7h-.69v0a.58.58,0,0,0,.45-.18.64.64,0,0,0,.16-.45v0Zm0,1v.7h-.08v-.06a.6.6,0,0,0-.16-.44.62.62,0,0,0-.45-.19h.69Zm.37-2.69v.19l-.85-.07.33,0,.31-.05A1.07,1.07,0,0,0,282,344.09Zm0,.42v.86h-.09v-.08a.77.77,0,0,0-.19-.55.71.71,0,0,0-.54-.21v0Z" transform="translate(-145.51 -185.67)"/><path class="cls-1" d="M285.33,344.11a3.49,3.49,0,0,1,1.16.17,2.47,2.47,0,0,1,.9.5,2.28,2.28,0,0,1,.58.79,2.52,2.52,0,0,1,.2,1.05,2.43,2.43,0,0,1-.2,1,2.28,2.28,0,0,1-.58.79,2.47,2.47,0,0,1-.9.5,4,4,0,0,1-2.31,0,2.42,2.42,0,0,1-.89-.5,2.06,2.06,0,0,1-.58-.79,2.59,2.59,0,0,1-.2-1,2.69,2.69,0,0,1,.2-1.05,2.06,2.06,0,0,1,.58-.79,2.42,2.42,0,0,1,.89-.5A3.51,3.51,0,0,1,285.33,344.11Zm0,4.69a1.42,1.42,0,0,0,.86-.27,1.81,1.81,0,0,0,.56-.75,3.67,3.67,0,0,0,0-2.33,1.72,1.72,0,0,0-.56-.76,1.42,1.42,0,0,0-.86-.27,1.36,1.36,0,0,0-.84.27,1.72,1.72,0,0,0-.56.76,3.49,3.49,0,0,0,0,2.33,1.81,1.81,0,0,0,.56.75A1.36,1.36,0,0,0,285.33,348.8Z" transform="translate(-145.51 -185.67)"/><path class="cls-1" d="M289.18,344.21v.42h0a.35.35,0,0,0-.12-.25.32.32,0,0,0-.25-.1h-.11v-.07Zm1.14,0v3a1.75,1.75,0,0,0,.34,1.15,1.18,1.18,0,0,0,.95.41,1.26,1.26,0,0,0,1-.39,1.59,1.59,0,0,0,.35-1.09v-3.1h.53v3.06a1.76,1.76,0,0,1-.52,1.35,2.09,2.09,0,0,1-1.49.49,2.59,2.59,0,0,1-1.73-.49,1.72,1.72,0,0,1-.56-1.35v-3.06Zm.47,0v.07h-.12a.33.33,0,0,0-.25.1.3.3,0,0,0-.1.25h0v-.42Zm2.17,0v.42h0a.31.31,0,0,0-.11-.25.33.33,0,0,0-.25-.1h-.11v-.07Zm1,0v.07h-.1a.35.35,0,0,0-.26.1.31.31,0,0,0-.11.25h0v-.42Z" transform="translate(-145.51 -185.67)"/><path class="cls-1" d="M294.89,348.52V349h-.59v-.08h.12a.45.45,0,0,0,.32-.12.37.37,0,0,0,.12-.29Zm0-4.42,1.1,1.2V349h-1.1v-4a5.1,5.1,0,0,0-.08-.91Zm0,0,4.69,4.13.08.88L294.94,345Zm1.1,4.42a.36.36,0,0,0,.14.29.41.41,0,0,0,.3.12h.14V349h-.6v-.49Zm2.57-3.82a.41.41,0,0,0-.13-.29.45.45,0,0,0-.31-.12H298v-.08h.59v.49Zm1.09-.49v4c0,.18,0,.35,0,.49l.06.44h-.07l-1.1-1.27v-3.63Zm0,.49v-.49h.6v.08h-.14a.42.42,0,0,0-.3.12.36.36,0,0,0-.14.29Z" transform="translate(-145.51 -185.67)"/><path class="cls-1" d="M301.37,344.71h0a.43.43,0,0,0-.14-.3.47.47,0,0,0-.32-.12h-.09v-.08h.56Zm0,3.79V349h-.57v-.08h.1a.44.44,0,0,0,.45-.43Zm1.13-4.29V349h-1.15v-4.8Zm1,0a3.47,3.47,0,0,1,1.47.28,2.07,2.07,0,0,1,.94.83,2.69,2.69,0,0,1,0,2.58,2.1,2.1,0,0,1-.94.82,3.47,3.47,0,0,1-1.47.29h-1.78v-.32h1.69a1.43,1.43,0,0,0,1.19-.55,2.94,2.94,0,0,0,0-3.06,1.44,1.44,0,0,0-1.19-.56h-1.77v-.31Z" transform="translate(-145.51 -185.67)"/><path class="cls-1" d="M307.35,344.71h0a.42.42,0,0,0-.13-.3.41.41,0,0,0-.3-.12h-.1v-.08h.59Zm0,3.8,0,.5h-.59v-.08h.1a.41.41,0,0,0,.3-.12.45.45,0,0,0,.13-.3Zm1.14-4.3V349h-1.16v-4.8Zm2,0v.32h-2v-.32Zm-.37,2.26v.32h-1.61v-.32Zm.28,2.22.18.32h-2.07v-.32Zm.51-1.15-.3,1.47h-1.39l.25-.32a1.27,1.27,0,0,0,1.07-.54,1.93,1.93,0,0,0,.3-.61Zm-.79-1.75v.7h-.68v0a.57.57,0,0,0,.44-.18.64.64,0,0,0,.16-.45v0Zm0,1v.7H310v-.06a.6.6,0,0,0-.16-.44.62.62,0,0,0-.44-.19h.68Zm.37-2.69v.19l-.84-.07a4.23,4.23,0,0,0,.48,0Zm0,.42v.85h-.08v-.07a.78.78,0,0,0-.19-.55.7.7,0,0,0-.54-.21v0Z" transform="translate(-145.51 -185.67)"/><path class="cls-1" d="M311.89,344.71h0a.43.43,0,0,0-.14-.3.47.47,0,0,0-.32-.12h-.09v-.08h.56Zm0,3.79V349h-.57v-.08h.1a.44.44,0,0,0,.45-.43Zm1.13-4.29V349h-1.15v-4.8Zm1,0a3.47,3.47,0,0,1,1.47.28,2.14,2.14,0,0,1,.95.83,2.76,2.76,0,0,1,0,2.58,2.19,2.19,0,0,1-.95.82A3.47,3.47,0,0,1,314,349h-1.78v-.32h1.69a1.43,1.43,0,0,0,1.19-.55,2.94,2.94,0,0,0,0-3.06,1.44,1.44,0,0,0-1.19-.56h-1.77v-.31Z" transform="translate(-145.51 -185.67)"/><path class="cls-1" d="M319.9,344.71h0a.39.39,0,0,0-.14-.3.47.47,0,0,0-.32-.12h-.1v-.08h.58Zm0,3.8v.5h-.58v-.08h.1a.47.47,0,0,0,.32-.12.42.42,0,0,0,.14-.3Zm1.13-4.3V349h-1.15v-4.8Zm0,.5v-.5h.58v.08h-.09a.47.47,0,0,0-.32.12.43.43,0,0,0-.14.3Zm0,3.8h0a.47.47,0,0,0,.14.3.47.47,0,0,0,.32.12h.1V349H321Z" transform="translate(-145.51 -185.67)"/><path class="cls-1" d="M322.81,348.52V349h-.6v-.08h.13a.45.45,0,0,0,.32-.12.37.37,0,0,0,.12-.29Zm0-4.42,1.1,1.2V349h-1.1v-4a5.1,5.1,0,0,0-.08-.91Zm0,0,4.69,4.13.08.88L322.86,345Zm1.1,4.42a.38.38,0,0,0,.13.29.45.45,0,0,0,.31.12h.14V349h-.6v-.49Zm2.57-3.82a.41.41,0,0,0-.13-.29.45.45,0,0,0-.31-.12h-.14v-.08h.59v.49Zm1.09-.49v4c0,.18,0,.35,0,.49l.06.44h-.07l-1.1-1.27v-3.63Zm0,.49v-.49h.6v.08H328a.47.47,0,0,0-.31.12.38.38,0,0,0-.13.29Z" transform="translate(-145.51 -185.67)"/><path class="cls-1" d="M331.25,344h0a.51.51,0,0,0-.15-.35.49.49,0,0,0-.36-.15h-.1v-.08h.63Zm0,4.44V349h-.63v-.08h.1a.49.49,0,0,0,.36-.15.53.53,0,0,0,.15-.35Zm1.18-5V349h-1.2v-5.6Zm.5,0a3.69,3.69,0,0,1,1,.14,1.53,1.53,0,0,1,.73.44,1.17,1.17,0,0,1,.26.79,1.32,1.32,0,0,1-.14.62,1,1,0,0,1-.36.39,1.2,1.2,0,0,1-.48.17,1.65,1.65,0,0,1,.73.23,1.29,1.29,0,0,1,.5.51,1.39,1.39,0,0,1,.19.75,1.31,1.31,0,0,1-.28.86,1.66,1.66,0,0,1-.79.52,3.53,3.53,0,0,1-1.18.18h-.79c0-.12,0-.24,0-.36h.43a1.39,1.39,0,0,0,.63-.14,1,1,0,0,0,.44-.42,1.6,1.6,0,0,0,.15-.74,1.57,1.57,0,0,0-.1-.6,1.11,1.11,0,0,0-.71-.63,1.7,1.7,0,0,0-.51-.07V346a1,1,0,0,0,.36-.06.94.94,0,0,0,.32-.19.91.91,0,0,0,.22-.34,1.52,1.52,0,0,0,.08-.51,1.34,1.34,0,0,0-.13-.65.72.72,0,0,0-.35-.36,1.16,1.16,0,0,0-.54-.12h-1a.32.32,0,0,0,0-.09c0-.05,0-.14-.06-.25Z" transform="translate(-145.51 -185.67)"/><path class="cls-1" d="M336.54,344.71h0a.42.42,0,0,0-.13-.3.41.41,0,0,0-.3-.12H336v-.08h.59Zm0,3.8,0,.5H336v-.08h.1a.41.41,0,0,0,.3-.12.45.45,0,0,0,.13-.3Zm1.14-4.3V349h-1.16v-4.8Zm2,0v.32h-2v-.32Zm-.36,2.26v.32h-1.62v-.32Zm.27,2.22.18.32h-2.07v-.32Zm.51-1.15-.3,1.47h-1.39l.25-.32a1.27,1.27,0,0,0,1.07-.54,1.93,1.93,0,0,0,.3-.61Zm-.78-1.75v.7h-.69v0a.57.57,0,0,0,.44-.18.64.64,0,0,0,.17-.45v0Zm0,1v.7h-.08v-.06A.6.6,0,0,0,339,347a.62.62,0,0,0-.44-.19h.69Zm.36-2.69v.19l-.84-.07a4.23,4.23,0,0,0,.48,0Zm0,.42v.85h-.08v-.07a.78.78,0,0,0-.19-.55.7.7,0,0,0-.54-.21v0Z" transform="translate(-145.51 -185.67)"/><path class="cls-1" d="M341.08,344.71h0a.39.39,0,0,0-.14-.3.41.41,0,0,0-.3-.12h-.1v-.08h.56Zm0,3.8,0,.5h-.6v-.08h.11a.41.41,0,0,0,.3-.12.45.45,0,0,0,.13-.3Zm1.13-4.3V349h-1.15v-4.8Zm0,.5v-.5h.55v.08h-.1a.44.44,0,0,0-.44.42Zm1.88,4,.19.32H342.2v-.32Zm.52-1.15-.31,1.47h-1.38l.25-.32a1.27,1.27,0,0,0,1.07-.54,1.72,1.72,0,0,0,.29-.61Z" transform="translate(-145.51 -185.67)"/><path class="cls-1" d="M347.76,344.11a6,6,0,0,1,.74,0,4.83,4.83,0,0,1,.7.13,2.69,2.69,0,0,1,.55.19v1.28h-.07a1.76,1.76,0,0,0-.38-.8,1.29,1.29,0,0,0-.58-.41,2,2,0,0,0-.71-.12,1.65,1.65,0,0,0-.94.26,1.58,1.58,0,0,0-.58.77,3.7,3.7,0,0,0,0,2.34,1.59,1.59,0,0,0,.52.75,1.35,1.35,0,0,0,.83.26,1.62,1.62,0,0,0,.49-.08,1.33,1.33,0,0,0,.41-.25.86.86,0,0,0,.24-.4v-1a.3.3,0,0,0-.09-.24.35.35,0,0,0-.26-.08h-.11v-.08h2.05v.08h-.1c-.23,0-.35.1-.34.32v1.06a2,2,0,0,1-.52.44,4.08,4.08,0,0,1-.84.36,3.49,3.49,0,0,1-1,.14,3.07,3.07,0,0,1-1.4-.3,2.25,2.25,0,0,1-.92-.86,2.75,2.75,0,0,1-.32-1.35,2.68,2.68,0,0,1,.32-1.34,2.19,2.19,0,0,1,.93-.85A3.17,3.17,0,0,1,347.76,344.11Z" transform="translate(-145.51 -185.67)"/><path class="cls-1" d="M351.47,344.71h0a.36.36,0,0,0-.14-.3.45.45,0,0,0-.32-.12h-.1v-.08h.58Zm0,3.8v.5h-.58v-.08h.1a.45.45,0,0,0,.32-.12.39.39,0,0,0,.14-.3Zm1.13-4.3V349h-1.15v-4.8Zm0,.5v-.5h.57v.08h-.08a.48.48,0,0,0-.33.12.43.43,0,0,0-.14.3Zm0,3.8h0a.47.47,0,0,0,.14.3.48.48,0,0,0,.33.12h.09V349h-.57Z" transform="translate(-145.51 -185.67)"/><path class="cls-1" d="M354.31,344.21v.42h0a.35.35,0,0,0-.12-.25.32.32,0,0,0-.25-.1h-.11v-.07Zm1.14,0v3a1.75,1.75,0,0,0,.34,1.15,1.18,1.18,0,0,0,.95.41,1.26,1.26,0,0,0,1-.39,1.59,1.59,0,0,0,.35-1.09v-3.1h.53v3.06a1.76,1.76,0,0,1-.52,1.35,2.09,2.09,0,0,1-1.49.49,2.54,2.54,0,0,1-1.72-.49,1.7,1.7,0,0,1-.57-1.35v-3.06Zm.47,0v.07h-.12a.35.35,0,0,0-.25.1.3.3,0,0,0-.1.25h0v-.42Zm2.17,0v.42h0a.31.31,0,0,0-.11-.25.33.33,0,0,0-.25-.1h-.11v-.07Zm1,0v.07H359a.35.35,0,0,0-.26.1.31.31,0,0,0-.11.25h0v-.42Z" transform="translate(-145.51 -185.67)"/><path class="cls-1" d="M359.93,348.5V349h-.78v-.08h.1a.61.61,0,0,0,.35-.11.47.47,0,0,0,.18-.32Zm.47-4.39h.07l.27.76-.5,4.14h-.53Zm-.12,4.5a.31.31,0,0,0,.05.2.24.24,0,0,0,.23.12h.11V349h-.48l.05-.4Zm.19-4.5,2.36,3.54-.43,1.51-2.12-3.22Zm4.38,0,.07.82-2.16,3.42c-.09.17-.16.32-.21.44a1.27,1.27,0,0,0-.07.37h-.08l-.31-.65Zm-.5,4.5h0l0,.4H364v-.08h.12a.24.24,0,0,0,.23-.12A.38.38,0,0,0,364.35,348.61Zm.57-4.5.71,4.9H364.4l-.39-2.92.84-2Zm.48,4.39h.16a.47.47,0,0,0,.18.32.58.58,0,0,0,.34.11h.11V349h-.79Z" transform="translate(-145.51 -185.67)"/></svg>