<svg id="Laag_1" data-name="Laag 1" xmlns="http://www.w3.org/2000/svg" viewBox="0 0 239.91 21.9"><defs><style>.cls-1{fill:#1d1d1b;}</style></defs><path class="cls-1" d="M182.16,151.14H182a1.57,1.57,0,0,1-.65-.15,2,2,0,0,1-.56-.39,2.46,2.46,0,0,1-.41-.55,1.29,1.29,0,0,1-.16-.61v-7.26h-.08l-.11-.06-.12-.05-.12,0a2.26,2.26,0,0,1-.92-.71l-1.05.79v5.77a5.31,5.31,0,0,1,.58.36c.26.18.62.42,1.09.72l-2.32,2.25a4.47,4.47,0,0,0-2.67-1.44,1.71,1.71,0,0,0-.95.33,3.42,3.42,0,0,1,1.43-2v-5.7a1.59,1.59,0,0,0-.75-1.35l-1.76,1.35v5.48l.23.1.26.09a2.05,2.05,0,0,1,.63.37,1.7,1.7,0,0,1,.37.44l-2.41,2.33a2.9,2.9,0,0,0-2.35-1.44,2,2,0,0,0-1,.25,3.07,3.07,0,0,1,.55-1.1,2.49,2.49,0,0,1,.91-.77v-5.85c0-.47-.54-.83-1.6-1.08V141l2.59-2.68a3.46,3.46,0,0,1,2.08,2.6l3.24-2.6a3.8,3.8,0,0,1,2,2.41l2.91-2.27c.76,1,1.36,1.46,1.81,1.46a2.49,2.49,0,0,0,1.35-.49v.46a.2.2,0,0,1,0,.07.25.25,0,0,0,0,.09.5.5,0,0,1,0,.12.76.76,0,0,0,0,.15,1.73,1.73,0,0,1-.24.66,3.6,3.6,0,0,1-.49.58v6.21a.67.67,0,0,0,.26.5.74.74,0,0,0,.52.23,1.77,1.77,0,0,0,.52-.11h0l0,0h.06l.05-.06H185Z" transform="translate(-168.04 -133.05)"/><path class="cls-1" d="M185.24,148.74s-.06.08-.08.08,0,0,.06-.11Zm10-.16,1,.13-2.4,2.73-2.05-1.92L190,151.44a8.55,8.55,0,0,0-4.73-2.7l.09-.14.16-.19.29-.43v-7.13a1.59,1.59,0,0,1-.4-.83V140a20.48,20.48,0,0,0,4.35-1.94c1.47.52,3,1,4.48,1.51v8.05A1.31,1.31,0,0,0,195.23,148.58ZM191.05,141a20.9,20.9,0,0,0-2.38-1v0l.11.09V147a13.62,13.62,0,0,1,2.27,1.38Z" transform="translate(-168.04 -133.05)"/><path class="cls-1" d="M206.62,140.07l-.05.06,0,.05a.44.44,0,0,0-.09.11l-.1.11v0a.9.9,0,0,0-.19.38v7.72a.1.1,0,0,0,0,.08v.05l0,.09v0a.06.06,0,0,1,0,0l0,.14,0,0c0,.08,0,.12,0,.14l0,0v0l0,0a.26.26,0,0,0,0,.11l.19.37a3.84,3.84,0,0,0-2-.51,4.57,4.57,0,0,0-3.72,1.76l-.24-.22-.1-.11-.09-.11a3.35,3.35,0,0,0-2.62-1.29,2.65,2.65,0,0,0-1.6.51,2.72,2.72,0,0,1,1.46-2.08v-6.45a2.32,2.32,0,0,0-.54-1.19h.33l.05,0h.32l.06,0H198a5.7,5.7,0,0,0,3.35-.94l-1.14-1.24c-.3-.33-.62-.64-.94-1s-.65-.58-1-.83l-.31-.23a4.35,4.35,0,0,1-.45-.37,16,16,0,0,1-1.22-1.29v-.38a1.2,1.2,0,0,0,.79.27,5.62,5.62,0,0,0,1.4-.19,7.31,7.31,0,0,0,1.38-.54,5,5,0,0,0,.7,1.27v0l.68.68,2.8,2.78.06.08.62.65.24.24.33.3a.63.63,0,0,0,.12.1l.12.11h0a1.3,1.3,0,0,0,.87.41l.21-.27Zm-3.43,8.24v-7.4l-1.08-1.11a3.19,3.19,0,0,1-1.62.89v6.59l.19.05.27.07.54.15a4.82,4.82,0,0,1,1.3.92l.05-.06h0l0,0H203l0,0h.14Zm3.16-7.86s0,0,.06-.08l-.06.11Z" transform="translate(-168.04 -133.05)"/><path class="cls-1" d="M215.61,142.77c-.21.11-.64.35-1.28.72s-1.51.87-2.6,1.52a4.44,4.44,0,0,0-.54.35v2a13.11,13.11,0,0,1,1.55.35,9.29,9.29,0,0,1,1.34.51l.64-.67.68.62-2.46,2.7-.27-.14-1.11-.55a5.16,5.16,0,0,0-1.24-.39,10.51,10.51,0,0,0-2-.24,4.73,4.73,0,0,0-.65,0l-.65.09.11-.23a1,1,0,0,1,.11-.15v0l.31-.49.15-.21a4,4,0,0,1,.73-.65v-6.53a4.06,4.06,0,0,0-.43-1.35v-.38l.24.24h.16l0,0h.08l.08,0h.11a8.9,8.9,0,0,0,4.8-1.78c.09.33.21.68.35,1.06a12.54,12.54,0,0,0,.6,1.26c.23.42.45.8.66,1.15s.4.65.58.91Zm-4.21-2.13-.21.05v3.46l1.45-1c-.07-.1-.15-.24-.25-.41s-.21-.4-.34-.67a7.05,7.05,0,0,1-.35-.73Q211.54,141,211.4,140.64Z" transform="translate(-168.04 -133.05)"/><path class="cls-1" d="M227.12,150.87a3.83,3.83,0,0,1-.87-.17,2.41,2.41,0,0,1-.81-.48,1.86,1.86,0,0,1-.81-1.48v-6.81a.72.72,0,0,1-.62-.48l-.38.21-.38-.54.08-.13,0,0,.06-.06.05,0c.18-.17.38-.35.59-.56l.87-.77a4.81,4.81,0,0,0,.73-.59l.1-.08.17-.16v-.33c.74,1.05,1.38,1.57,1.94,1.57a2.71,2.71,0,0,0,.87-.38V140a1.12,1.12,0,0,0-.06.38,2.73,2.73,0,0,1-.57,1,2,2,0,0,1-.73.56v5.75a1.05,1.05,0,0,0,.14.43q.24.51,1.11.51a1.88,1.88,0,0,0,.7-.16l.11.19Zm-.73-12.66h-.22v0h-.27l-.05,0a1.15,1.15,0,0,1-1.27-.83l-.44.21-.35-.59a2,2,0,0,1,.46-.34l.46-.23-.05.06.23-.18.28-.23.45-.32.55-.41c.47.69,1,1,1.46,1a.84.84,0,0,1,.23-.07,1,1,0,0,0,.23-.07h0l.05-.05h0l0,0h0l0,0h.19v.24a1.58,1.58,0,0,1-.17.71,2.09,2.09,0,0,1-.46.6,2.59,2.59,0,0,1-.65.42A1.93,1.93,0,0,1,226.39,138.21Z" transform="translate(-168.04 -133.05)"/><path class="cls-1" d="M239.94,140.07c.06,0,.08.07.08.16a2,2,0,0,1-.32.81v7.83h1.05a12.83,12.83,0,0,0-2.45,2.51,13,13,0,0,0-2.43-2.67h.62v-7.5l-1.06-.9-1.37,1.06v7.4h1.16a7.37,7.37,0,0,0-2.41,2,3.42,3.42,0,0,1-.54.71s0,0,0,0l0-.06c-.16-.72-1-1.52-2.51-2.4l0-.16h1v-7c-.25-1-.67-1.5-1.27-1.54l2.38-1.78a7,7,0,0,1,2,1.43,9.26,9.26,0,0,0,2.78-1.49l.35-.27A13.09,13.09,0,0,0,239.94,140.07Z" transform="translate(-168.04 -133.05)"/><path class="cls-1" d="M252.33,150.36a4.06,4.06,0,0,0-2.72-1.32,1,1,0,0,0-.92.45v-.37a3,3,0,0,1,.22-.62,2.47,2.47,0,0,1,1-1.17V140.8h-.46a1.37,1.37,0,0,1-.43.16.67.67,0,0,1-.24.08l0,.06h-.05l-.3.16v-.19a.32.32,0,0,1,0-.16v-.08l0-.06a.35.35,0,0,1,0-.16v-.19a.86.86,0,0,1,0-.16s0-.12,0-.19v-.16l0-.08v-.24a3.23,3.23,0,0,1-.11-1,3.47,3.47,0,0,0,.58.27,2,2,0,0,0,.37.11,1,1,0,0,1,.35,0h.21v-1.21l0-.05v-.3l-.06-.08a.56.56,0,0,1,0-.12.5.5,0,0,0,0-.13v0s-.05-.11-.05-.22l.19-.05,0,.05h.14v0a3.75,3.75,0,0,0,2.86-1.68v.36l0,0a.53.53,0,0,0,0,.16,1.08,1.08,0,0,1-.07.27v0a.3.3,0,0,1,0,.14,3,3,0,0,0-.11.64V139h.84l.05,0a1.61,1.61,0,0,0,.95-.38v.3a.35.35,0,0,0,0,.16,1.59,1.59,0,0,0-.08.68h0a11.35,11.35,0,0,0,.14,1.51l-.3-.16,0,0h0a5.13,5.13,0,0,0-.68-.18c-.25,0-.54-.07-.86-.09V147a.59.59,0,0,0,.43.19l.08,0a.19.19,0,0,1,.11.05.24.24,0,0,0,.16.08l.07,0,.07,0h0l.2.15a2.45,2.45,0,0,0,.29.18l.27-.27.54.62Z" transform="translate(-168.04 -133.05)"/><path class="cls-1" d="M274.8,142.77l-1.28.72L270.91,145c-.16.09-.34.21-.54.35v2a12.85,12.85,0,0,1,1.56.35,8.74,8.74,0,0,1,1.33.51l.65-.67.68.62-2.46,2.7-.27-.14-1.11-.55a5.16,5.16,0,0,0-1.24-.39,10.6,10.6,0,0,0-2.05-.24,4.73,4.73,0,0,0-.65,0c-.22,0-.43,0-.65.09a1.67,1.67,0,0,1,.11-.23,1,1,0,0,1,.11-.15v0c.12-.2.23-.36.31-.49l.15-.21a4,4,0,0,1,.73-.65v-6.53a3.91,3.91,0,0,0-.44-1.35v-.38l.25.24h.16l0,0h.08l.08,0h.11a8.9,8.9,0,0,0,4.8-1.78c.09.33.21.68.35,1.06a10.67,10.67,0,0,0,.6,1.26c.23.42.45.8.66,1.15s.4.65.58.91Zm-4.21-2.13-.22.05v3.46l1.46-1a3.93,3.93,0,0,1-.25-.41c-.1-.18-.22-.4-.34-.67a5.47,5.47,0,0,1-.35-.73Q270.72,141,270.59,140.64Z" transform="translate(-168.04 -133.05)"/><path class="cls-1" d="M293.46,139.91V140l0,0a.9.9,0,0,1-.12.42c-.08.15-.18.3-.28.45a2.79,2.79,0,0,1-.38.39,1.88,1.88,0,0,1-.41.25v7.21c0,.94-.78,1.59-2.35,2l-.6.09a3.22,3.22,0,0,1-.5,0h-.17l-.24,0c-1.91.14-2.86.57-2.86,1.29,0,.27.17.41.51.41a7,7,0,0,0,1.65-.78,5,5,0,0,1,2.43-.76,2.39,2.39,0,0,1,1.62.59,1.91,1.91,0,0,1,.67,1.49,1.67,1.67,0,0,1-.58,1.3,2.05,2.05,0,0,1-1.41.51,1.46,1.46,0,0,1-1-.22v-.92a1.65,1.65,0,0,0,.84.25h0l.05,0h.08a.72.72,0,0,0,.38-.13c.15-.09.22-.19.22-.3s-.12-.27-.35-.27l-.06,0h0a3.56,3.56,0,0,0-1.68.65,8.82,8.82,0,0,1-1.07.62,3.87,3.87,0,0,1-.68.27l-.33,0h-.48a2.24,2.24,0,0,1-.89-.17,2.78,2.78,0,0,1-.76-.47,2.54,2.54,0,0,1-.53-.69,1.9,1.9,0,0,1-.2-.85v-.14h0a2.21,2.21,0,0,1,1.37-2,3.22,3.22,0,0,1-1-.68,1.68,1.68,0,0,1-.65-1.21v-7c0-.41-.43-.67-1.29-.76v-.18l2.89-2.27a2.82,2.82,0,0,1,.4.29,2.88,2.88,0,0,1,.41.44,2,2,0,0,1,.46.91l0,.06v.16l0,0v1.05l4.05-2.73a2.33,2.33,0,0,0,1.84,1.14h.05l0,0a1.3,1.3,0,0,0,.83-.3v.44Zm-4.19,9.31v-7.37a.6.6,0,0,1-.21-.08l-.25-.11-.46-.21-1.64,1.13v6.48c0,.36.31.61.94.73h.11l.05,0h.13a.05.05,0,0,0,0,0h.16l.05,0a1.83,1.83,0,0,0,.73-.15A.48.48,0,0,0,289.27,149.22Z" transform="translate(-168.04 -133.05)"/><path class="cls-1" d="M302.07,142.77l-1.28.72c-.64.37-1.51.87-2.6,1.52a4.44,4.44,0,0,0-.54.35v2a13.11,13.11,0,0,1,1.55.35,8.74,8.74,0,0,1,1.33.51l.65-.67.68.62-2.46,2.7-.27-.14-1.11-.55a5.16,5.16,0,0,0-1.24-.39,10.6,10.6,0,0,0-2-.24,4.73,4.73,0,0,0-.65,0l-.65.09a1.67,1.67,0,0,1,.11-.23,1,1,0,0,1,.11-.15v0c.12-.2.23-.36.31-.49l.15-.21a4,4,0,0,1,.73-.65v-6.53a4.06,4.06,0,0,0-.43-1.35v-.38l.24.24h.16l0,0h.08l.08,0h.11a8.9,8.9,0,0,0,4.8-1.78c.09.33.21.68.35,1.06a12.54,12.54,0,0,0,.6,1.26c.23.42.45.8.66,1.15s.4.65.58.91Zm-4.21-2.13-.21.05v3.46l1.45-1c-.07-.1-.15-.24-.25-.41s-.22-.4-.34-.67a7.05,7.05,0,0,1-.35-.73Q298,141,297.86,140.64Z" transform="translate(-168.04 -133.05)"/><path class="cls-1" d="M302.31,148.74s-.06.08-.08.08a.41.41,0,0,1,0-.11Zm10-.16,1,.13-2.4,2.73-2.06-1.92-1.8,1.92a8.58,8.58,0,0,0-4.73-2.7l.08-.14a.77.77,0,0,0,.16-.19l.3-.43v-7.13a1.59,1.59,0,0,1-.4-.83V140a20.18,20.18,0,0,0,4.34-1.94c1.48.52,3,1,4.48,1.51v8.05A1.31,1.31,0,0,0,312.3,148.58ZM308.12,141a20.9,20.9,0,0,0-2.38-1v0l.11.09V147a13.62,13.62,0,0,1,2.27,1.38Z" transform="translate(-168.04 -133.05)"/><path class="cls-1" d="M315.79,138.1a7,7,0,0,1,1.94,1.43h.08a1.17,1.17,0,0,0,.33-.08,10.75,10.75,0,0,0,2-1.13l.37-.27a6.71,6.71,0,0,0,2.54,1.59,1.51,1.51,0,0,1-.65,1,2.43,2.43,0,0,1-1.32.48l-.35,0a8,8,0,0,1-2.05-.32,1.84,1.84,0,0,0-.43-.06c-.31,0-.46.11-.46.33v7.4H319a7.6,7.6,0,0,0-2.43,2c-.33.49-.52.73-.57.73v-.05l0,0a1,1,0,0,0-.05-.16,3.28,3.28,0,0,0-.32-.54,7,7,0,0,0-2.08-1.73l0-.16h1.05v-7q-.45-1.32-1.35-1.38Z" transform="translate(-168.04 -133.05)"/><path class="cls-1" d="M340.17,147.82a1.29,1.29,0,0,0,.62,1,7.63,7.63,0,0,0-4.67,2.35q-1.56-1.62-5.45-2c-.08,0-.11,0-.11-.08a1.26,1.26,0,0,1,.32-.56,7.16,7.16,0,0,1,.68-.84v-6.83a1.6,1.6,0,0,1-.44-.87v0a7.51,7.51,0,0,0,4.54-1.62,15.54,15.54,0,0,0,5,1.72,1.81,1.81,0,0,0-.51.84ZM337,141.26a15.69,15.69,0,0,0-2.46-.92s-.05,0-.05,0v7.1a5.69,5.69,0,0,0,2.51.89Z" transform="translate(-168.04 -133.05)"/><path class="cls-1" d="M350,134.7a2.18,2.18,0,0,1-.84,1.15,2.43,2.43,0,0,1-1.32.5,1.53,1.53,0,0,1-.3,0,2.26,2.26,0,0,1-1.7-.59l0,.05,0,0a.56.56,0,0,1-.27.11h0l0,0v3.06l0,0a7.35,7.35,0,0,0,1.89-.11h.25a2,2,0,0,0,.39-.07v.25l0,0v.08l0,.06v.13a7.85,7.85,0,0,0-.08,1.08v.14l0,.05V141l.16.19h-.35l0,0a7,7,0,0,1-1-.16h-.1l-.11,0a0,0,0,0,0,0,0h-.54a1.59,1.59,0,0,1-.43-.06v6.7a1,1,0,0,0,.43.08.84.84,0,0,0,.43.14,1.86,1.86,0,0,0,.25.16q.18.1.45.3l.6-.63.57.54-2.89,2.79a5.35,5.35,0,0,0-3.35-1.6h-.06l-.05,0-.28,0a1.18,1.18,0,0,0-.31.08,2.47,2.47,0,0,1,1.4-1.76V140.8a3.86,3.86,0,0,1-1,.08l-.05,0h-.19a3.75,3.75,0,0,1,0-.57v-.7l0-.08v-.16l0-.06v-.48a1.57,1.57,0,0,0,.57.08,1.16,1.16,0,0,0,.37,0,.61.61,0,0,0,.27,0h0l0-2.7v0l-.05-.16c0-.08-.05-.16-.08-.25l0,0v-.27a.65.65,0,0,0,.27,0H343q2.25,0,4.35-2.53l.17.17a3.11,3.11,0,0,1,.34.39,2.49,2.49,0,0,0,1.78.92h-.05l.05,0h.22Z" transform="translate(-168.04 -133.05)"/><path class="cls-1" d="M365.14,139.53a2.17,2.17,0,0,1-.77,1.58,2.43,2.43,0,0,1-1.66.64A2,2,0,0,1,361,141v6.26a1.26,1.26,0,0,0,.62.14.82.82,0,0,0,.25.09c.16.05.39.12.69.23a3.59,3.59,0,0,1,.48.23,1.32,1.32,0,0,1,.33.29l.71-.84.64.51-2.45,3a6.23,6.23,0,0,0-4.11-1.57,1.5,1.5,0,0,0-1.19.49,3,3,0,0,1,1.22-1.95v-6.15a1.37,1.37,0,0,0,0-.19c0-.08,0-.17,0-.27a1.12,1.12,0,0,1-.08-.46,1.41,1.41,0,0,1-.13-.46.77.77,0,0,1-.08-.27v-.35l.24.24s.2,0,.51,0a4.44,4.44,0,0,0,1.94-.45,4.08,4.08,0,0,0,1.54-1.27c.78,1,1.49,1.51,2.14,1.51a2.24,2.24,0,0,0,.78-.38Z" transform="translate(-168.04 -133.05)"/><path class="cls-1" d="M376.32,148.74s-.06.08-.08.08a.41.41,0,0,1,.05-.11Zm10-.16,1,.13-2.4,2.73-2.06-1.92L381,151.44a8.53,8.53,0,0,0-4.72-2.7l.08-.14a1.06,1.06,0,0,0,.16-.19l.3-.43v-7.13a1.63,1.63,0,0,1-.41-.83V140A20,20,0,0,0,380.8,138c1.48.52,3,1,4.48,1.51v8.05A1.31,1.31,0,0,0,386.31,148.58ZM382.13,141a20.9,20.9,0,0,0-2.38-1v0l.11.09V147a14,14,0,0,1,2.27,1.38Z" transform="translate(-168.04 -133.05)"/><path class="cls-1" d="M396.9,147.82a1.32,1.32,0,0,0,.62,1,7.63,7.63,0,0,0-4.67,2.35q-1.56-1.62-5.45-2c-.07,0-.11,0-.11-.08a1.26,1.26,0,0,1,.32-.56,7.16,7.16,0,0,1,.68-.84v-6.83a1.56,1.56,0,0,1-.43-.87v0a7.5,7.5,0,0,0,4.53-1.62,15.62,15.62,0,0,0,5,1.72,1.81,1.81,0,0,0-.51.84Zm-3.16-6.56a16.22,16.22,0,0,0-2.45-.92s-.06,0-.06,0v7.1a5.75,5.75,0,0,0,2.51.89Z" transform="translate(-168.04 -133.05)"/><path class="cls-1" d="M408,138.8a11.92,11.92,0,0,1-3,4.48l2.54-.05s0,.05,0,.11a.54.54,0,0,0,0,.11.25.25,0,0,0,0,.13l0,0v0l-.05.06v.05l0,0a.22.22,0,0,1,0,.09.07.07,0,0,0,0,.05v0l-.06.19,0,.11v4.59a.1.1,0,0,0,0,.08V149l0,.06v0s0,0,0,.05l0,.14,0-.06,0,0a.42.42,0,0,0,.05.1l.17.27.1.22a1.09,1.09,0,0,1-.35,0h0l-.08,0-.54,0a.81.81,0,0,1-.35-.09,2.21,2.21,0,0,1-.49,0h-.16a4.44,4.44,0,0,0-3.38,1.41l-.78-.79a2.1,2.1,0,0,0-.4-.28,1,1,0,0,0-.44-.1,1.07,1.07,0,0,0-.45-.08,1.74,1.74,0,0,0-1.73,1.19h-.79a7.8,7.8,0,0,1,.76-1.93,14.77,14.77,0,0,1,1.46-2.12l.11-.11.2-.21.28-.3-1.78-.08.19-.19,0,.08a1.11,1.11,0,0,0,.25-.67l0-.06,0-4.7a.08.08,0,0,0,0,0s0,0,0,0v0a.19.19,0,0,1,0-.13l-.08-.19v0a.21.21,0,0,1,0-.16v-.25a.8.8,0,0,0,.56.25,2.49,2.49,0,0,0,1,.11,1,1,0,0,0,.27,0,4.94,4.94,0,0,0,2.4-.62,13.35,13.35,0,0,0,1.08-1,2.35,2.35,0,0,0,1.62,1,1.45,1.45,0,0,0,1.27-.78l.73-.05Zm-3.49,9.8v-3.4l-.05,0H403l-1.4,1.4c-.13.13-.27.28-.43.47s-.36.4-.6.64l.57-.1.38,0a3,3,0,0,1,2.4,1.25l.11-.06.08,0a.48.48,0,0,0,.19-.05h.11Zm.9-7.15a2.71,2.71,0,0,1-1,.19,3,3,0,0,1-1.78-.79l-.11.06h-.1a.75.75,0,0,1-.3.08v3.4h.3a4.52,4.52,0,0,0,.6-.51l1-1Z" transform="translate(-168.04 -133.05)"/><path class="cls-1" d="M371.32,148.71a3.15,3.15,0,0,0-.52-.51,4.69,4.69,0,0,0-.74-.46l-.33-.11-.24-.08V142l1.19-.89,0,0c.08.07.29.22.65.46a1.64,1.64,0,0,0,.76.32v7a.86.86,0,0,1-.16.47,2.14,2.14,0,0,1-.13.19c-.05.06-.12.11-.17.18a1.3,1.3,0,0,0-.1.25s.16,0,.18-.05a10.06,10.06,0,0,1,2.55-.41h.11a2.85,2.85,0,0,1,1,.22l.09,0,.09-.12,0-.06s-.06-.09-.08-.11a1.54,1.54,0,0,1-.34-.49,3.47,3.47,0,0,1-.27-.59l0-7a2.22,2.22,0,0,0,.94-1.41,1,1,0,0,0,0-.21.54.54,0,0,1,0-.19c0-.06,0-.1,0-.14a.49.49,0,0,0,0-.13v-.38a3.48,3.48,0,0,1-1.35.62c-.09,0-.14,0-.16,0-.54,0-1.05-.49-1.54-1.48l-3.4,2.59v-5.07a1.8,1.8,0,0,1,0-.27c0-.13,0-.29.08-.52,0,0,0,0,0-.05a3.82,3.82,0,0,1,.22-.81l.08-.16.09-.27.13-.35-.22,0,0,0a7.44,7.44,0,0,1-.6.49,8,8,0,0,1-1.64.94,4.06,4.06,0,0,1-1.57.33,4.54,4.54,0,0,1,.51,1.62v11.31a2.87,2.87,0,0,0-1.7,2l.22,0a1,1,0,0,0,.3-.08,1.93,1.93,0,0,1,.32-.13l.16,0h.14a4.27,4.27,0,0,1,2.75,1.46Z" transform="translate(-168.04 -133.05)"/><path class="cls-1" d="M261.38,148.71a2.87,2.87,0,0,0-.53-.51,3.92,3.92,0,0,0-.74-.46l-.32-.11-.25-.08V142l1.19-.89,0,0a6.63,6.63,0,0,0,.65.46,1.57,1.57,0,0,0,.75.32v7a.85.85,0,0,1-.15.47,2.14,2.14,0,0,1-.13.19,1,1,0,0,0-.17.18,1.36,1.36,0,0,0-.11.25s.17,0,.19-.05a10.06,10.06,0,0,1,2.55-.41h.1a3,3,0,0,1,1,.22l.09,0,.09-.12,0-.06s-.06-.09-.09-.11a1.72,1.72,0,0,1-.34-.49,6.28,6.28,0,0,1-.27-.59l0-7a2.26,2.26,0,0,0,.94-1.41,1,1,0,0,0,0-.21,1,1,0,0,1,0-.19.51.51,0,0,0,0-.14.44.44,0,0,0,0-.13v-.38a3.61,3.61,0,0,1-1.35.62c-.09,0-.15,0-.16,0-.54,0-1.06-.49-1.54-1.48l-3.41,2.59v-5.07a1.8,1.8,0,0,1,0-.27c0-.13.05-.29.08-.52,0,0,0,0,0-.05a2.89,2.89,0,0,1,.22-.81l.08-.16.09-.27c.05-.13.09-.25.12-.35l-.21,0,0,0c-.36.31-.55.47-.59.49a8.07,8.07,0,0,1-1.65.94,4,4,0,0,1-1.56.33,4.54,4.54,0,0,1,.51,1.62v11.31a2.87,2.87,0,0,0-1.7,2l.22,0a1,1,0,0,0,.29-.08,2,2,0,0,1,.33-.13l.16,0h.13A4.26,4.26,0,0,1,258.9,151Z" transform="translate(-168.04 -133.05)"/></svg>