<svg id="Laag_1" data-name="Laag 1" xmlns="http://www.w3.org/2000/svg" viewBox="0 0 182 77.38"><defs><style>.cls-1{stroke:#000;stroke-miterlimit:10;stroke-width:1.8px;}</style></defs><path class="cls-1" d="M38.17,32.69a10.14,10.14,0,0,0,.61-3,4.07,4.07,0,0,0-.47-2.36,1.55,1.55,0,0,0-1.28-.9,1.3,1.3,0,0,0-1,.69A3.33,3.33,0,0,0,35.49,29a3.57,3.57,0,0,0,.91,2.42,1.84,1.84,0,0,1,.46,1.26A3.27,3.27,0,0,1,36,34.58a3.49,3.49,0,0,1-2.29,1.17,6.81,6.81,0,0,1-2.74-.22,25.11,25.11,0,0,1-5.22-2.46,28.19,28.19,0,0,1-3,5A23.14,23.14,0,0,1,18.61,42q-.06,8.49-.1,17,2.63,1.47,5.23,2.66Q22.1,66,20.54,70.7c-.73,2.12-1.46,4.29-2.17,6.52-.45,1.36-.77,2.31-.95,2.82a6.37,6.37,0,0,0-.48,1.86,1.24,1.24,0,0,0,.25.82c.16.2.33.23.49.09a5.9,5.9,0,0,0,.9-1.68,12.41,12.41,0,0,1,3.91-5.43,6.28,6.28,0,0,1,2.72-1.18,7,7,0,0,1,3,.37,37,37,0,0,1,3.89-6.67A15.61,15.61,0,0,1,36,64.67q.34-7.52.68-15-2.85-1.25-5.7-2.77c1.73-3.6,3.49-7,5.28-10.17A28.64,28.64,0,0,0,38.17,32.69ZM31.31,55.85l-.39,11.08a6.27,6.27,0,0,0-5.73.26,10.24,10.24,0,0,0-1.66,1.26,19.54,19.54,0,0,0-2,2.14c2-5.88,4-11.34,6.14-16.43C28.91,54.76,30.11,55.32,31.31,55.85Zm-4.46-2.17c-1.11-.54-2.22-1.11-3.34-1.72q.12-6,.22-12c1.92,2,3.91,2.58,6,2.13a9.82,9.82,0,0,0,3-1.34C30.71,44.78,28.75,49.07,26.85,53.68Z" transform="translate(-15.32 -25.09)"/><path class="cls-1" d="M54.38,55.26c-.74.86-1.22,1.41-1.45,1.62a1.54,1.54,0,0,1-.53.34c-.27.1-.51-.06-.73-.47a7.82,7.82,0,0,1-.16-3.16q.52-8,1.06-16c.74-.85,1.48-1.68,2.21-2.48q-2.18-1.87-4.35-4-2.45,2.39-4.87,5c.6.74,1.2,1.45,1.8,2.15q-.54,8.76-1.06,17.52a15.37,15.37,0,0,0,.25,5.28A4,4,0,0,0,49,63.22q3-3.88,5.94-7.31Z" transform="translate(-15.32 -25.09)"/><path class="cls-1" d="M86.84,47.83A7.37,7.37,0,0,1,85,48.9a.82.82,0,0,1-.78-.34,2.79,2.79,0,0,1-.46-2.06l.54-10.36A5.78,5.78,0,0,1,85,33.48a9.76,9.76,0,0,1,2.38-2.19l-.73-.55c-.89.69-1.78,1.4-2.68,2.13-1.15-1-2.29-2.09-3.42-3.18-2.8,1.92-5.63,4-8.47,6.17L72.1,35a4.43,4.43,0,0,0-.41-2.5A10.11,10.11,0,0,0,69,30.11C67,31.65,65,33.26,63.05,35l.59.74a3.63,3.63,0,0,1,1.66-1.16c.33,0,.62.16.85.58a7.27,7.27,0,0,1,.32,3.64q-.45,6.43-.91,12.87c-.71.77-1.42,1.56-2.14,2.37,1.5.78,3,1.51,4.52,2.23,1.68-1.63,3.35-3.19,5-4.66l-1.92-1.25q.47-6.65.91-13.29c1.58-1.25,3.16-2.44,4.74-3.59.73.67,1.47,1.32,2.21,2q-.39,6.18-.76,12.36a6.26,6.26,0,0,0,.43,3.39,6.07,6.07,0,0,0,2.79,1.92c2-1.66,4.08-3.22,6.11-4.7Z" transform="translate(-15.32 -25.09)"/><path class="cls-1" d="M119.39,47.11a5.06,5.06,0,0,1-1.81.67,1.15,1.15,0,0,1-.81-.48,3.2,3.2,0,0,1-.64-2q-.1-4.87-.23-9.74a4.61,4.61,0,0,1,.48-2.47,8.26,8.26,0,0,1,2.22-1.95l-.77-.57-2.54,1.88c-1.23-1-2.45-2.07-3.67-3.09l-8.14,5v-.73a3.37,3.37,0,0,0-.57-2.13A10.37,10.37,0,0,0,100,29.33c-1.89,1.21-3.8,2.43-5.73,3.7l.63.62a3.37,3.37,0,0,1,1.63-.84,1.06,1.06,0,0,1,.9.51,5.21,5.21,0,0,1,.52,3l-.24,10.41L95.63,48.3l4.87,2.64q2.49-1.56,5-3l-2.07-1.42.09-11.21L108,32.52l2.38,1.9q0,5.52.11,11.06a6,6,0,0,0,.68,3.16,9.93,9.93,0,0,0,3,2.36l5.86-3.19C119.85,47.58,119.62,47.34,119.39,47.11Z" transform="translate(-15.32 -25.09)"/><path class="cls-1" d="M140.84,51.54c-2.14-1.19-4.29-2.29-6.44-3.33-.08-1.36-.16-2.72-.25-4.08,3.9-1.8,7.73-3.69,11.5-5.8-2.68-3-5.35-5.85-8-8.48-2.83,1.21-4.64,1.9-5.42,2.18-1.07.36-2.42.75-4.06,1.16q.31,6.18.64,12.37a7.09,7.09,0,0,1-.17,2.71,1.88,1.88,0,0,1-1.2.9l0,.53a39.91,39.91,0,0,1,5.07,1.83,36.13,36.13,0,0,1,4.58,2.6c2.85-1.07,5.66-2.16,8.42-3.32-.21-.3-.43-.59-.64-.88C143.56,50.48,142.21,51,140.84,51.54Zm-7.39-19.1.37-.14c2.32,2.19,4.67,4.49,7,7-2.25,1.18-4.51,2.29-6.8,3.37Q133.76,37.53,133.45,32.44Z" transform="translate(-15.32 -25.09)"/><path class="cls-1" d="M164.52,58.66q-1.56-1.83-3.12-3.54l-1.14-17c.81-.75,1.61-1.53,2.41-2.33q1.82,2.61,3.6,5.43c1.23-1.16,2.45-2.38,3.68-3.66-1.42-2.19-2.85-4.27-4.28-6.26-1.84,1.92-3.67,3.7-5.51,5.36a5.25,5.25,0,0,0-.68-2.48,15.6,15.6,0,0,0-3.27-3.47c-1.7,1.59-3.41,3.08-5.12,4.49l.7.84c.63-.63,1.15-.94,1.54-.9a1.54,1.54,0,0,1,1,.8,6.57,6.57,0,0,1,.65,2.87L155.8,50a8.85,8.85,0,0,1-.12,3.2,2.38,2.38,0,0,1-1.41,1.23l0,.6a19.07,19.07,0,0,1,3.3,2.45,36,36,0,0,1,3.81,4.4c2.1-1,4.18-2.17,6.25-3.43L167,57.21C166.19,57.72,165.36,58.2,164.52,58.66Z" transform="translate(-15.32 -25.09)"/><path class="cls-1" d="M196,34.81a16.17,16.17,0,0,0,.45-3.85,7.22,7.22,0,0,0-.59-3.15c-.39-.79-.84-1.18-1.32-1.19s-.7.27-1,.82a4.47,4.47,0,0,0-.42,2.2,6.12,6.12,0,0,0,1,3.11,3.31,3.31,0,0,1,.52,1.68,3.41,3.41,0,0,1-.78,2.23,2.2,2.2,0,0,1-2.21.76,8.31,8.31,0,0,1-2.75-1c-1.35-.8-3.13-2.08-5.38-3.7a12.76,12.76,0,0,1-2.76,3.86,10,10,0,0,1-4.06,2l.6,13.4c1.91,2,3.8,4.2,5.66,6.51-1,1.74-2,3.39-3,5-.7,1-1.39,2-2.09,2.94a10.61,10.61,0,0,1-.94,1.08,1.08,1.08,0,0,0-.47.84,2.15,2.15,0,0,0,.31.93,1.84,1.84,0,0,0,.56.71c.2.12.52.06.94-.18a3.79,3.79,0,0,1,4,.33,12.23,12.23,0,0,1,2.83,2.41A30.54,30.54,0,0,1,188.33,77a8.12,8.12,0,0,1,3.55-2.17,5.26,5.26,0,0,1,3.53.67q0-9.63-.1-19.24-2.84-3.94-5.79-7.39,2.31-4.44,4.71-9.52A26.5,26.5,0,0,0,196,34.81ZM190.4,59.38q.1,6.19.22,12.39c-2-3.42-4-5.51-5.84-6.51a6.87,6.87,0,0,0-1.68-.63,8.49,8.49,0,0,0-2-.22c1.83-3,3.68-6.29,5.56-9.9Q188.56,56.85,190.4,59.38Zm-4.63-6c-1.16-1.37-2.33-2.68-3.52-4-.12-3.61-.25-7.22-.37-10.83,2.05,2.43,4.11,4,6.18,4.47a6.12,6.12,0,0,0,2.91-.14Q188.32,48.55,185.77,53.36Z" transform="translate(-15.32 -25.09)"/><path d="M197.28,29.93v1.21l-.07,1.33-.2,1.62-.41,1.53-.49,1.49-.63,1.52-1.6,3.46-3.29,6.54,5.55,7.16v.05l.16,43.87-.63,2.54-.62-2.44-2-24-.06,0-.3,0h-.46l-.35,0-.35.1-.34.13-.39.21-.33.2-.49.33-.88.7-1.26,1.16-.37-.58-.69-1.23-1.5-2.3-.58-.75L184,73l-.8-.78-.7-.61-1.1-.76-.61-.28-.47-.17-.49-.09-.59,0-.45.13-.47.26-.36.15-.44.08h-.48l-.61-.25-.39-.37-.39-.57-.23-.43-.15-.43-.1-.48V68l.08-.43.17-.37.23-.34.33-.34.33-.35,1.2-1.54,1.34-2,2.53-4.17L176,52.28l-.65-14.7,1.12-.32.87-.28,1.48-.65.54-.35.63-.53.51-.54.52-.62.79-1.26.38-.65.33-.66.36-.81,5.8,4,.63.38.64.36,1,.36.66.16.57,0,.21,0,.16-.07.12-.09.15-.15.17-.23.13-.24.1-.23.09-.26,0-.3V34.3l0-.25-.06-.24-.09-.22-.19-.38-.28-.46-.25-.52-.21-.45-.21-.67-.13-.53-.09-.58,0-.28v-.29l0-.76.1-.62.17-.66.2-.5.16-.29.21-.31.32-.35.29-.23.42-.19.41-.1h.41l.33.08.59.24.51.47.46.59.4.86.34,1.14Zm-.25,1.2V30l-.17-1.11-.33-1.11-.38-.81-.43-.55-.48-.44-.52-.21-.28-.06h-.35l-.36.09-.38.17-.25.2-.29.32-.19.29-.15.27-.19.47-.17.63-.09.6,0,.27v.74l0,.26.08.56.12.53.22.63.19.44.25.5.27.46.21.41.1.23.06.28,0,.29v.34l-.05.32-.09.3-.12.25-.15.27-.18.24-.18.19-.17.12-.2.09-.26,0h-.23l-.38,0-.35-.07-.37-.11-1-.37-.66-.37-.63-.39L183,31.28l-.25.55-.34.67-.38.65-.8,1.29-.54.63-.52.55-.65.55-.57.37-.6.27-.91.39-.88.29-1,.27.66,14.43,5.49,6.21,0,.08-2.58,4.26-1.35,2-1.21,1.55-.34.37-.33.31-.2.31-.15.32-.07.38v.43l.1.42.15.4.2.4.38.54.36.33.5.21h.41l.39-.07.33-.14.49-.26.5-.15.63,0,.54.11.51.17.64.3.53.36.59.41.72.63.8.8.68.79.59.76L187,76.7l.69,1.23.21.32.35-.31.7-.66.89-.7.5-.34.35-.22.41-.21.36-.14.38-.11.38,0h.5l.32,0,.26.06v.1l2,24.07.37,1.47.38-1.56-.15-43.8-5.59-7.22,0-.07L193.65,42l1.61-3.45.63-1.51.48-1.47.41-1.5.18-1.61Z" transform="translate(-15.32 -25.09)"/><path d="M197,30v1.18L197,32.44l-.18,1.61-.41,1.5L195.89,37l-.63,1.51L193.65,42l-3.31,6.61,0,.07,5.59,7.22.15,43.8-.38,1.56-.37-1.47-2-24.07v-.1l-.26-.06-.32,0h-.5l-.38,0-.38.11-.36.14-.41.21-.35.22-.5.34-.89.7-.7.66-.35.31-.21-.32L187,76.7l-1.51-2.33-.59-.76-.68-.79-.8-.8-.72-.63-.59-.41-.53-.36-.64-.3-.51-.17-.54-.11-.63,0-.5.15-.49.26-.33.14-.39.07h-.41l-.5-.21-.36-.33-.38-.54-.2-.4-.15-.4-.1-.42V68l.07-.38.15-.32.2-.31.33-.31.34-.37,1.21-1.55,1.35-2,2.58-4.26,0-.08-5.49-6.21-.66-14.43,1-.27.88-.29.91-.39.6-.27.57-.37.65-.55.52-.55.54-.63.8-1.29.38-.65.34-.67.25-.55,5.57,3.86.63.39.66.37,1,.37.37.11.35.07.38,0h.23l.26,0,.2-.09.17-.12.18-.19.18-.24.15-.27.12-.25.09-.3.05-.32V34.3l0-.29-.06-.28-.1-.23-.21-.41-.27-.46-.25-.5-.19-.44-.22-.63-.12-.53L192,30l0-.26V29l0-.27.09-.6.17-.63.19-.47.15-.27.19-.29.29-.32.25-.2.38-.17.36-.09h.35l.28.06.52.21.48.44.43.55.38.81.33,1.11ZM189.4,68.58l-.1-9v0L186.57,56l-4.18,7.34-.07.14,1.05.31,1,.35,1,.49,1.08.81.91.82.79.82.61.72Zm-4-16.89,3.77-7.75h-.75l-.84-.15-1.25-.44-1.36-.69-1.4-1-.94-.86.29,8.14v0Z" transform="translate(-15.32 -25.09)"/><path d="M189.3,59.58l.1,9-.59-.81-.61-.72-.79-.82-.91-.82-1.08-.81-1-.49-1-.35-1.05-.31.07-.14L186.57,56l2.73,3.57Zm-.16,8.23-.08-8.2-2.46-3.2-3.91,6.89.76.22,1.06.37,1,.51,1.1.81.93.84.81.84.62.73Z" transform="translate(-15.32 -25.09)"/><path d="M189.13,43.94l-3.77,7.75L182.88,49v0l-.29-8.14.94.86,1.4,1,1.36.69,1.25.44.84.15Zm-3.83,7.31,3.44-7.06h-.39l-.88-.17-1.28-.45-1.39-.69-1.43-1-.52-.48.27,7.51Z" transform="translate(-15.32 -25.09)"/><polygon points="179.48 49.03 175.49 48.62 176.54 50.72 176.94 51.24 177.16 51.95 177.56 54.14 178.08 59.22 179.04 68.38 179.74 74.72 179.48 49.03"/><path d="M39.51,27.85a7.28,7.28,0,0,1-.07,2.71,22,22,0,0,1-2.7,6.61l-4.65,8.92,5.39,2.56v.08s-.71,16-.72,16.28-1.07.69-1.25.82A12.05,12.05,0,0,0,33.28,68,39.82,39.82,0,0,0,28.51,76l-.84-.28a5.14,5.14,0,0,0-4.17.18A8,8,0,0,0,21,78.26c-3.07,4.23-2.88,9.86-3.41,14.85l-.69,6.42-.73,2.94-.75-3c0-3.72,0-7.45,0-11.18,0-2.52-.41-5.59.33-8,1.86-6,4.06-11.88,6.1-17.81.07-.2.14-.4.2-.6l-2.24-1.11-2.74-1.48.1-18.15.75-.58c3.25-2.53,5.19-5.72,7-9.33l1.9,1.14A18.08,18.08,0,0,0,30.61,34a5.87,5.87,0,0,0,2.62.32c.94-.15,2.39-1,2.14-2.16a2.19,2.19,0,0,0-.42-.78,5,5,0,0,1-.51-4.59,3,3,0,0,1,1.14-1.44,2.45,2.45,0,0,1,2.57.21A3.61,3.61,0,0,1,39.51,27.85Zm-.16,1.8v-1.5l-.47-1.32L38.3,26l-.65-.53-.75-.23-.64.08-.48.22-.48.37-.42.58-.36.79-.17.82,0,.87.15.95.26.59.4.73.35.45.23.51-.1.52-.33.65-.55.64-.86.43-1,.16H32l-1.31-.28c-.77-.32-2-.82-2.11-.85l-.46-.22-1.35-.71-1.69-1-.9,1.77-1,1.82-.81,1.23-1.22,1.58L20,39.06,19,40l-1.59,1.25-.1,17.88,2.61,1.42,2.43,1.19,0,.11L16,80.24l-.2.8-.11.56v.75l0,17.07.5,2,.49-2,1.73-16.21L19,81.41l1.23-2.51L21.61,77,23,75.86l1.05-.57,1.5-.31,1,.15,1.13.31.65.22L30,72.4l1.8-3,1.45-1.82,1.18-1.26.85-.68,1.19-.75.72-16.09-5.47-2.6.06-.11,4.7-9,1.08-2,.22-.49.84-1.77.49-1.72Z" transform="translate(-15.32 -25.09)"/><polygon points="24.03 3.07 24.03 4.57 23.83 5.99 23.34 7.71 22.5 9.49 19.96 8.29 20.29 7.64 20.39 7.13 20.16 6.62 19.81 6.17 19.41 5.43 19.15 4.84 19 3.89 19.03 3.02 19.2 2.21 19.56 1.41 19.98 0.83 20.46 0.46 20.95 0.25 21.58 0.17 22.33 0.39 22.98 0.92 23.56 1.75 24.03 3.07"/><path d="M37.82,34.57l-.22.49-1.08,2-4.7,9-.06.11,5.47,2.6-.72,16.09-1.19.75-.85.68-1.18,1.26L31.84,69.4l-1.8,3-1.65,3.26-.65-.22-1.13-.31-1-.15-1.5.31L23,75.86,21.61,77,20.18,78.9,19,81.41l-.59,1.87L16.63,99.49l-.49,2-.5-2,0-17.07V81.6L15.8,81l.2-.8,6.33-18.42,0-.11-2.43-1.19L17.33,59.1l.1-17.88L19,40l1-.91,1.12-1.12,1.22-1.58.81-1.23,1-1.82.9-1.77,1.69,1,1.35.71.46.22c.11,0,1.34.53,2.11.85l1.31.28h.89l1-.16.86-.43.55-.64ZM26.06,52.22l4.41-9.82-1.26.34-.89.06h-.9l-.86-.16-1.11-.45-1.2-.66-.19,9.62Zm4.07,3.9v-.07l-2.25-1L23.31,66.89l1.11-.73.82-.44.92-.3,1.06-.2.86,0,.89.07.81.15Z" transform="translate(-15.32 -25.09)"/><path d="M30.47,42.4l-4.41,9.82-2-1.07.19-9.62,1.2.66,1.11.45.86.16h.9l.89-.06ZM26,51.88,30,42.77l-.79.2-.92.07h-.92l-.92-.17-1.14-.46-.87-.47L24.31,51Z" transform="translate(-15.32 -25.09)"/><path d="M30.13,56.05v.07l-.35,9.3L29,65.27l-.89-.07-.86,0-1.06.2-.92.3-.82.44-1.11.73,4.57-11.84Zm-.59,9.07.34-8.92L28,55.38l-4.2,10.89.48-.32.86-.46,1-.31L27.2,65l.88,0L29,65Z" transform="translate(-15.32 -25.09)"/><path d="M81.66,78.23v6.59a.38.38,0,0,0,.08.26,1.18,1.18,0,0,0,.25.49l.08.15h-.41a.75.75,0,0,1-.31-.09h-.13a6.66,6.66,0,0,0-4,1.56l-.1-.08,0,0,0,0c-.11-.12-.22-.25-.35-.37s-.28-.26-.45-.4v2a2.72,2.72,0,0,0,.51,1.49,1.59,1.59,0,0,0-.33-.08l-.31,0a5.56,5.56,0,0,0-2.15.67v0a4.82,4.82,0,0,1-.42.26l-.53.28-.1-.13a2.15,2.15,0,0,0,.46-1,.13.13,0,0,0,0-.07.69.69,0,0,1,0-.16v-.1l0,0V85.64H73.4a1.07,1.07,0,0,1-.27.09l-.32.09h0l-.36.18-.2.08a.88.88,0,0,0-.18.1l-.21.13a2.81,2.81,0,0,1,.46-1.46,2.53,2.53,0,0,1,1.16-1V78.69a.6.6,0,0,0-.35-.53A1.43,1.43,0,0,0,72.4,78l0,0h-.21l0,0h-.26v-.2l2.74-2.9A2.64,2.64,0,0,1,76,76.23a3.34,3.34,0,0,1,.2.76,8.1,8.1,0,0,1,.06,1.06l3.82-3c.09.14.19.29.32.46a6.94,6.94,0,0,0,.48.57,1.49,1.49,0,0,0,1,.61s.08,0,.2,0,.12,0,.13,0a.46.46,0,0,0,.34-.1h0l0-.05h.18v.21a1.87,1.87,0,0,1-1.18,1.53Zm-3,6.87.17-.07V78.26A1.27,1.27,0,0,1,78,77.8L76.3,79.13l.08,4.41a4.54,4.54,0,0,1,.77.28A4.2,4.2,0,0,1,78.69,85.1Z" transform="translate(-15.32 -25.09)"/><path d="M85.92,75a6.74,6.74,0,0,1,1.85,1.36h.07a1.07,1.07,0,0,0,.31-.08,9.46,9.46,0,0,0,1.9-1.08l.36-.25a6.14,6.14,0,0,0,2.41,1.51,1.48,1.48,0,0,1-.62,1,2.3,2.3,0,0,1-1.26.46l-.33,0a7.66,7.66,0,0,1-2-.31,1.58,1.58,0,0,0-.41-.05c-.29,0-.43.1-.43.3v7h1.1a7.31,7.31,0,0,0-2.31,1.9q-.47.69-.54.69v0l0,0,0-.15a2.72,2.72,0,0,0-.31-.52,6.43,6.43,0,0,0-2-1.64l0-.15h1V78.28C84.4,77.45,84,77,83.41,77Z" transform="translate(-15.32 -25.09)"/><path d="M102.27,84.26a1.28,1.28,0,0,0,.59.95,7.18,7.18,0,0,0-4.43,2.23q-1.49-1.55-5.18-1.93c-.07,0-.1,0-.1-.07a1.13,1.13,0,0,1,.31-.54,8.57,8.57,0,0,1,.64-.8V77.62a1.47,1.47,0,0,1-.41-.82v0A7,7,0,0,0,98,75.23a15.08,15.08,0,0,0,4.77,1.65,1.73,1.73,0,0,0-.49.79Zm-3-6.23a14.7,14.7,0,0,0-2.34-.87s0,0,0,0v6.74a5.38,5.38,0,0,0,2.39.85Z" transform="translate(-15.32 -25.09)"/><path d="M113.37,76.9l-.06,0,0,0a.44.44,0,0,0-.09.11l-.09.1v.05a1,1,0,0,0-.18.36V85a.11.11,0,0,0,0,.08v0l0,.08v0s0,0,0,.05l0,.13,0,0a.27.27,0,0,0,0,.13l0,.05v0l0,0a.22.22,0,0,0,0,.1l.18.36a3.55,3.55,0,0,0-1.87-.49,4.34,4.34,0,0,0-3.54,1.67L107.7,87l-.09-.1-.09-.1A3.18,3.18,0,0,0,105,85.57a2.52,2.52,0,0,0-1.51.48,2.54,2.54,0,0,1,1.39-2V78a2.28,2.28,0,0,0-.52-1.13h.31l0,0h.31l0,0h.08a5.42,5.42,0,0,0,3.18-.9l-1.08-1.18q-.44-.47-.9-.9c-.31-.29-.61-.55-.92-.79l-.3-.22-.42-.35a13.35,13.35,0,0,1-1.15-1.23V71a1.12,1.12,0,0,0,.74.26,5,5,0,0,0,1.33-.18,6.58,6.58,0,0,0,1.31-.51,4.35,4.35,0,0,0,.67,1.2v0l.64.64L111,75l.05.07.59.62.23.23c.08.09.19.18.3.28l.12.11.12.1h0a1.23,1.23,0,0,0,.82.38l.21-.25Zm-3.26,7.82v-7l-1-1.06a3.09,3.09,0,0,1-1.53.85v6.26l.18,0,.25.06.51.14a4.68,4.68,0,0,1,1.23.87l.06-.05h0l0,0h.08l0,0h.12Zm3-7.46s0,0,0-.08l0,.11Z" transform="translate(-15.32 -25.09)"/><path d="M117.55,87.15a3,3,0,0,1-.82-.16,2.63,2.63,0,0,1-.77-.45,1.79,1.79,0,0,1-.77-1.41V78.67a.71.71,0,0,1-.59-.46l-.36.2-.35-.51.07-.13,0,0,.05,0,0,0,.56-.52c.21-.2.48-.45.82-.74a5,5,0,0,0,.7-.56l.1-.08.15-.15v-.31c.7,1,1.32,1.49,1.85,1.49a2.55,2.55,0,0,0,.82-.36v.31a1,1,0,0,0,0,.36,2.94,2.94,0,0,1-.54,1,1.9,1.9,0,0,1-.69.52V84.1a.9.9,0,0,0,.13.41c.15.33.5.49,1,.49a1.86,1.86,0,0,0,.66-.15l.11.18Zm-.69-12h-.21v0h-.25l-.05,0a1.1,1.1,0,0,1-1.21-.79l-.41.2-.33-.56a1.42,1.42,0,0,1,.43-.32l.44-.22,0,0,.22-.17.27-.22.42-.3.52-.39c.45.65.91,1,1.39,1a.79.79,0,0,1,.22-.07l.21-.06h0l0,0h0l0,0h0l0,0h.18v.23a1.48,1.48,0,0,1-.16.68,2.18,2.18,0,0,1-.44.56,2.36,2.36,0,0,1-.62.4A1.73,1.73,0,0,1,116.86,75.13Z" transform="translate(-15.32 -25.09)"/><path d="M130.07,87.21a8.8,8.8,0,0,1-1.54,1.3.39.39,0,0,0-.1.08l-1,.7a2.85,2.85,0,0,0-.54.45l-.63.59-.71.7a.86.86,0,0,1-.21-.13.91.91,0,0,0-.17-.16h0l-.23-.16a1.78,1.78,0,0,1-.26-.22h0a.23.23,0,0,0-.08-.07.46.46,0,0,1-.17-.08,2.56,2.56,0,0,0-1.62-.44,4.14,4.14,0,0,0-2.07.69,3.49,3.49,0,0,1,1.66-2,4.6,4.6,0,0,1,2.31-.62,4,4,0,0,1,2.28.56c.62-.56.92-1,.92-1.33s-.18-.49-.56-.87a1.86,1.86,0,0,1-.67-1.15A8.26,8.26,0,0,0,124,87.21a3.22,3.22,0,0,0-2.41-1.57.24.24,0,0,0-.15,0,3.74,3.74,0,0,0-.85.18,1.28,1.28,0,0,1-.28,0,1.77,1.77,0,0,1,.41-1,5.4,5.4,0,0,1,.36-.44.87.87,0,0,1,.28-.2V77.62a1,1,0,0,1-.05-.16.3.3,0,0,1,0-.1l0-.13a2.24,2.24,0,0,0-.18-.41v-.28a1.62,1.62,0,0,0,1,.26l.08,0h.13a8.78,8.78,0,0,0,3.74-.94l.51-.26a9.26,9.26,0,0,0,.82-.46,2.53,2.53,0,0,0,2.11,1.51h.07l.5-.24.5-.27a2.51,2.51,0,0,1-1.18,2v5.26a2.51,2.51,0,0,0,.62,1.51l0,0h0l.13.1,0,.06h0a1.78,1.78,0,0,1,.43,1A1.68,1.68,0,0,1,130.07,87.21ZM126.66,84V78.44a1.54,1.54,0,0,1-1.23-.74.62.62,0,0,1-.12-.17,1.18,1.18,0,0,0-.17-.24v0h0v0a1.3,1.3,0,0,1-.54.15l-.2.1a.6.6,0,0,1-.29,0v6.28a1,1,0,0,0,.34,0,2.33,2.33,0,0,1,1.25.67l0,0,.1-.06,0,0,.34-.22c.16-.11.31-.21.45-.29A.11.11,0,0,0,126.66,84Z" transform="translate(-15.32 -25.09)"/><path d="M141.5,76.75v.13l0,0a.84.84,0,0,1-.11.4,4.94,4.94,0,0,1-.27.42,1.8,1.8,0,0,1-.36.37,2.23,2.23,0,0,1-.38.25v6.84c0,.89-.75,1.5-2.23,1.85l-.58.09-.47,0h-.16l-.23,0c-1.81.14-2.72.55-2.72,1.23,0,.26.17.38.49.38a6.16,6.16,0,0,0,1.56-.74,4.85,4.85,0,0,1,2.31-.72,2.24,2.24,0,0,1,1.54.57,1.77,1.77,0,0,1,.64,1.41,1.58,1.58,0,0,1-.55,1.23,2,2,0,0,1-1.35.49,1.36,1.36,0,0,1-.92-.21V90a1.65,1.65,0,0,0,.79.23h0l.05,0h.08A.76.76,0,0,0,139,90a.37.37,0,0,0,.2-.29c0-.17-.11-.25-.33-.25l-.05,0h0a3.41,3.41,0,0,0-1.59.62,11.45,11.45,0,0,1-1,.59,3.37,3.37,0,0,1-.65.25l-.31,0h-.46a2.25,2.25,0,0,1-.85-.16,2.43,2.43,0,0,1-.72-.45,2.62,2.62,0,0,1-.5-.65,1.86,1.86,0,0,1-.19-.81v-.13h0a2.12,2.12,0,0,1,1.3-1.92,3.38,3.38,0,0,1-.92-.64,1.59,1.59,0,0,1-.61-1.16V78.36q0-.58-1.23-.72v-.18l2.74-2.15a2.16,2.16,0,0,1,.38.28,3,3,0,0,1,.39.41,1.82,1.82,0,0,1,.43.88l0,.05v.15l0,0v1l3.84-2.59a2.22,2.22,0,0,0,1.74,1.07h.06l0,0a1.32,1.32,0,0,0,.8-.28v.41Zm-4,8.84v-7a.86.86,0,0,1-.21-.07l-.23-.11-.43-.2-1.57,1.07v6.16q0,.51.9.69h.15l.08,0h.23l.05,0a1.65,1.65,0,0,0,.69-.15A.45.45,0,0,0,137.53,85.59Z" transform="translate(-15.32 -25.09)"/></svg>