<svg id="Laag_1" data-name="Laag 1" xmlns="http://www.w3.org/2000/svg" viewBox="0 0 82.34 9.74"><path d="M63.78,64a1.82,1.82,0,0,0-1.22-.58.42.42,0,0,0-.4.2v-.17a1.8,1.8,0,0,1,.09-.27,1.08,1.08,0,0,1,.46-.52V59.8H62.5a.84.84,0,0,1-.19.07l-.11,0v0h0L62,60v-.08a.17.17,0,0,1,0-.08v-.06a.15.15,0,0,1,0-.07v-.08a.15.15,0,0,1,0-.07.29.29,0,0,1,0-.09V59.4l0,0v-.1a1.59,1.59,0,0,1,0-.44,1.34,1.34,0,0,0,.25.12l.17.05h.25v-.7s0,0,0,0,0,0,0-.06,0,0,0,0h0a.13.13,0,0,1,0-.1l.09,0v0h.06A1.64,1.64,0,0,0,64,57.3v.16h0a.12.12,0,0,0,0,.07.35.35,0,0,1,0,.12h0s0,0,0,.06a1.58,1.58,0,0,0,0,.29v1h.4a.72.72,0,0,0,.42-.17V59a.12.12,0,0,0,0,.07.88.88,0,0,0,0,.3h0a5,5,0,0,0,.06.67l-.13-.07h0a1.08,1.08,0,0,0-.3-.08,2.11,2.11,0,0,0-.38,0v2.76a.29.29,0,0,0,.19.08h0l0,0a.09.09,0,0,0,.07,0l0,0,0,0h0l.09.06a.36.36,0,0,0,.12.08l.12-.12.24.28Z" transform="translate(-62.04 -56.34)"/><path d="M74,60.67l-.57.32-1.15.68a1.58,1.58,0,0,0-.24.15v.9a7,7,0,0,1,.69.16,3.45,3.45,0,0,1,.59.23l.29-.3.3.27-1.09,1.2-.12-.06-.5-.24a2.09,2.09,0,0,0-.55-.18,4.66,4.66,0,0,0-.91-.1h-.29l-.29,0,0-.11s0,0,0-.06h0l.14-.22.06-.09a2.19,2.19,0,0,1,.33-.29V60.1a1.91,1.91,0,0,0-.19-.6v-.17l.1.11h.21a3.94,3.94,0,0,0,2.13-.79c0,.14.1.3.16.47a5.2,5.2,0,0,0,.26.56l.3.51a4,4,0,0,0,.26.4Zm-1.87-1-.09,0v1.53l.64-.42-.11-.18-.15-.3a3.18,3.18,0,0,1-.16-.32C72.24,60,72.19,59.84,72.15,59.72Z" transform="translate(-62.04 -56.34)"/><path d="M82,58.91a5.37,5.37,0,0,1-1.32,2l1.12,0v0a.13.13,0,0,0,0,0,.13.13,0,0,0,0,.06h0v0l0,0v.09s0,0,0,0h0a.19.19,0,0,0,0,.08l0,0v2a.05.05,0,0,0,0,0v0a0,0,0,0,1,0,0v0h0l0,0a.75.75,0,0,1,.07.12l0,.1a.32.32,0,0,1-.15,0h-.27a.33.33,0,0,1-.15,0H81a2,2,0,0,0-1.5.63L79.1,64a.68.68,0,0,0-.18-.13.41.41,0,0,0-.19,0,.56.56,0,0,0-.21,0,.77.77,0,0,0-.76.53h-.35a3.29,3.29,0,0,1,.33-.86,7,7,0,0,1,.65-.94l0,0,.09-.09.13-.13-.8,0,.09-.08v0a.47.47,0,0,0,.1-.3l0,0,0-2.09v0s0,0,0,0v0s0,0,0-.06l0-.09h0a.14.14,0,0,1,0-.07v-.11a.38.38,0,0,0,.25.11,1.14,1.14,0,0,0,.42,0h.12a2.17,2.17,0,0,0,1.07-.28,6.17,6.17,0,0,0,.48-.45,1.06,1.06,0,0,0,.72.44.64.64,0,0,0,.56-.35l.33,0Zm-1.55,4.35V61.75l0,0h-.61l-.62.62-.19.21a3.43,3.43,0,0,1-.27.28l.25,0,.17,0a1.34,1.34,0,0,1,1.07.56l0,0h0l.09,0h.05Zm.39-3.18a1,1,0,0,1-.43.09,1.38,1.38,0,0,1-.79-.35l0,0h0a.22.22,0,0,1-.13,0v1.51h.13a1.17,1.17,0,0,0,.27-.23l.45-.44C80.48,60.43,80.68,60.22,80.8,60.08Z" transform="translate(-62.04 -56.34)"/><path d="M83.92,64.27a1.36,1.36,0,0,1-.38-.08,1,1,0,0,1-.36-.21.83.83,0,0,1-.36-.66v-3a.34.34,0,0,1-.28-.22l-.16.1-.17-.24,0-.06h0l0,0h0l.27-.25a5.07,5.07,0,0,1,.38-.34,2.83,2.83,0,0,0,.33-.27l0,0,.08-.07v-.15c.32.47.61.7.86.7a1.22,1.22,0,0,0,.38-.17v.14a.88.88,0,0,0,0,.17,1.2,1.2,0,0,1-.25.45.93.93,0,0,1-.33.25v2.55a.49.49,0,0,0,.06.2c.08.15.24.22.5.22a.84.84,0,0,0,.31-.07l0,.09Zm-.32-5.63h-.24a.51.51,0,0,1-.56-.37l-.2.09-.15-.26a1,1,0,0,1,.2-.15l.21-.1,0,0a.31.31,0,0,0,.1-.08l.13-.1.2-.14.24-.18a.86.86,0,0,0,.65.45l.1,0,.11,0h0l0,0h.13v.1a.69.69,0,0,1-.08.32,1.05,1.05,0,0,1-.2.27,1.41,1.41,0,0,1-.29.18A.78.78,0,0,1,83.6,58.64Z" transform="translate(-62.04 -56.34)"/><path d="M89.61,59.47s0,0,0,.07a.89.89,0,0,1-.15.36v3.48H90a6.1,6.1,0,0,0-1.09,1.12,5.29,5.29,0,0,0-1.08-1.19h.28V60l-.47-.4-.61.47v3.29h.51a3.28,3.28,0,0,0-1.07.88,1.43,1.43,0,0,1-.24.32,0,0,0,0,1,0,0v0c-.07-.32-.44-.68-1.11-1.07l0-.07h.47V60.24c-.11-.44-.3-.67-.56-.68l1-.8a3.07,3.07,0,0,1,.89.64,4.22,4.22,0,0,0,1.24-.66l.15-.12A6,6,0,0,0,89.61,59.47Z" transform="translate(-62.04 -56.34)"/><path d="M94.68,59.47s0,0,0,.07a1,1,0,0,1-.14.36v3.48H95a5.93,5.93,0,0,0-1.1,1.12,5.29,5.29,0,0,0-1.08-1.19h.28V60l-.47-.4-.61.47v3.29h.52a3.17,3.17,0,0,0-1.07.88,3,3,0,0,1-.24.32s0,0,0,0v0c-.07-.32-.45-.68-1.12-1.07l0-.07h.47V60.24c-.12-.44-.3-.67-.57-.68l1.06-.8a3.24,3.24,0,0,1,.89.64,4.35,4.35,0,0,0,1.23-.66l.16-.12A5.79,5.79,0,0,0,94.68,59.47Z" transform="translate(-62.04 -56.34)"/><path d="M99.1,60.67l-.57.32-1.15.68a1.58,1.58,0,0,0-.24.15v.9a6.18,6.18,0,0,1,.68.16,3.56,3.56,0,0,1,.6.23l.29-.3.3.27-1.09,1.2-.12-.06L97.3,64a2.09,2.09,0,0,0-.55-.18,4.66,4.66,0,0,0-.91-.1h-.29l-.29,0,0-.11s0,0,0-.06h0c0-.09.1-.16.14-.22l.06-.09a2.19,2.19,0,0,1,.33-.29V60.1a1.75,1.75,0,0,0-.2-.6v-.17l.11.11H96a3.94,3.94,0,0,0,2.13-.79,4.38,4.38,0,0,0,.16.47,5.2,5.2,0,0,0,.26.56l.3.51a4.1,4.1,0,0,0,.25.4Zm-1.87-1-.09,0v1.53l.64-.42-.11-.18c0-.08-.1-.18-.15-.3a3.18,3.18,0,0,1-.16-.32A3.42,3.42,0,0,1,97.23,59.72Z" transform="translate(-62.04 -56.34)"/><path d="M100.46,58.6a2.91,2.91,0,0,1,.86.63h0l.14,0a4.82,4.82,0,0,0,.89-.51l.17-.12a2.9,2.9,0,0,0,1.13.71.67.67,0,0,1-.29.44,1.08,1.08,0,0,1-.59.22h-.15a3.75,3.75,0,0,1-.92-.14l-.19,0c-.13,0-.2,0-.2.15v3.29h.51a3.58,3.58,0,0,0-1.08.88c-.14.22-.22.33-.25.33v0h0a.19.19,0,0,1,0-.07,1.79,1.79,0,0,0-.15-.24,3.08,3.08,0,0,0-.92-.77v-.07h.46V60.12c-.13-.39-.33-.6-.6-.61Z" transform="translate(-62.04 -56.34)"/><path d="M108.52,58.91a5.37,5.37,0,0,1-1.32,2l1.13,0a.1.1,0,0,1,0,0v0a.13.13,0,0,0,0,.06h0v0l0,0v0s0,0,0,0v0h0l0,.08v2.09s0,0,0,0v0l0,0v0h0a.09.09,0,0,0,0,0l.07.12,0,.1a.42.42,0,0,1-.16,0H108a.34.34,0,0,1-.16,0h-.29a2,2,0,0,0-1.49.63l-.35-.35-.18-.13a.42.42,0,0,0-.2,0,.46.46,0,0,0-.2,0,.78.78,0,0,0-.77.53H104a3.29,3.29,0,0,1,.33-.86,7,7,0,0,1,.65-.94l.05,0,.09-.09.12-.13-.79,0,.09-.08,0,0a.48.48,0,0,0,.11-.3V59.7s0,0,0,0v0s0,0,0-.06l0-.09h0a.08.08,0,0,1,0-.07v-.11a.38.38,0,0,0,.25.11,1.1,1.1,0,0,0,.42,0h.12a2.19,2.19,0,0,0,1.07-.28,6.17,6.17,0,0,0,.48-.45,1,1,0,0,0,.72.44.64.64,0,0,0,.56-.35l.32,0ZM107,63.26V61.75l0,0h-.61l-.62.62-.2.21a3.2,3.2,0,0,1-.26.28l.25,0,.17,0a1.35,1.35,0,0,1,1.07.56l0,0h0l.08,0h0Zm.39-3.18a1.07,1.07,0,0,1-.43.09,1.35,1.35,0,0,1-.79-.35l-.05,0h0a.24.24,0,0,1-.13,0v1.51h.13a1.83,1.83,0,0,0,.27-.23l.45-.44Z" transform="translate(-62.04 -56.34)"/><path d="M116.49,60.1v3.08a.16.16,0,0,0,0,.12.54.54,0,0,0,.12.23l0,.07h-.19a.21.21,0,0,1-.14,0h-.06a3.17,3.17,0,0,0-1.89.73l-.05,0v0a1.29,1.29,0,0,0-.16-.18l-.21-.18v1a1.25,1.25,0,0,0,.24.69.8.8,0,0,0-.15,0l-.15,0a2.62,2.62,0,0,0-1,.32v0a.78.78,0,0,1-.19.12l-.25.14,0-.06a1.14,1.14,0,0,0,.22-.47.08.08,0,0,0,0,0,.26.26,0,0,1,0-.07V63.56h0l-.13,0-.15,0h0l-.17.08-.09,0-.09,0-.09.06a1.36,1.36,0,0,1,.75-1.18V60.31a.28.28,0,0,0-.16-.25.71.71,0,0,0-.35-.1v0h-.23v-.1l1.28-1.35a1.19,1.19,0,0,1,.66.62,1.48,1.48,0,0,1,.09.35,3.63,3.63,0,0,1,0,.5l1.79-1.43a2.17,2.17,0,0,0,.15.22,2.35,2.35,0,0,0,.22.26.69.69,0,0,0,.46.29h.15c.08,0,.13,0,.16-.05h0l0,0H117v.1a.76.76,0,0,1-.17.43A.78.78,0,0,1,116.49,60.1Zm-1.39,3.21.08,0V60.11a.62.62,0,0,1-.42-.22l-.78.63,0,2.06a2.43,2.43,0,0,1,.36.13A2,2,0,0,1,115.1,63.31Z" transform="translate(-62.04 -56.34)"/><path d="M118.37,58.6a3,3,0,0,1,.87.63h0l.15,0a5.17,5.17,0,0,0,.89-.51l.16-.12a3,3,0,0,0,1.13.71.63.63,0,0,1-.29.44,1,1,0,0,1-.58.22h-.16a3.67,3.67,0,0,1-.91-.14l-.19,0q-.21,0-.21.15v3.29h.52a3.34,3.34,0,0,0-1.08.88,1.55,1.55,0,0,1-.25.33v0h0a.19.19,0,0,0,0-.07,1.62,1.62,0,0,0-.14-.24,3.14,3.14,0,0,0-.93-.77v-.07h.47V60.12c-.14-.39-.34-.6-.6-.61Z" transform="translate(-62.04 -56.34)"/><path d="M126.08,62.92a.58.58,0,0,0,.27.44,3.38,3.38,0,0,0-2.07,1,3.9,3.9,0,0,0-2.43-.9s0,0,0,0a.48.48,0,0,1,.14-.25c.14-.19.24-.31.3-.38v-3a.69.69,0,0,1-.19-.39h0a3.34,3.34,0,0,0,2-.72,7,7,0,0,0,2.24.77c-.16.18-.23.3-.23.37ZM124.67,60a6.86,6.86,0,0,0-1.09-.41h0v3.16a2.51,2.51,0,0,0,1.11.4Z" transform="translate(-62.04 -56.34)"/><path d="M131.25,59.47l0,0,0,0,0,0,0,0v0a.29.29,0,0,0-.08.17v3.43s0,0,0,0v0a0,0,0,0,1,0,0v.06h0s0,0,0,.06v0h0a.43.43,0,0,1,0,0l.09.16a1.72,1.72,0,0,0-.88-.22,2,2,0,0,0-1.65.78l-.11-.1,0,0s0,0-.05-.05a1.47,1.47,0,0,0-1.16-.57,1.14,1.14,0,0,0-.71.23,1.2,1.2,0,0,1,.65-.93V60a1,1,0,0,0-.24-.52h.37a2.54,2.54,0,0,0,1.49-.42l-.5-.55q-.21-.23-.42-.42a4.8,4.8,0,0,0-.44-.37l-.13-.11a1.27,1.27,0,0,1-.2-.16,5.42,5.42,0,0,1-.54-.57v-.17a.31.31,0,0,0,.21.11H127a2.27,2.27,0,0,0,.62-.09,2.42,2.42,0,0,0,.61-.24,2.33,2.33,0,0,0,.31.57h0l.3.3,1.25,1.23,0,0,.27.29.11.1.14.14.06,0,.05,0h0a.58.58,0,0,0,.38.18l.1-.12Zm-1.52,3.66V59.84l-.48-.49a1.53,1.53,0,0,1-.72.4v2.93l.08,0,.12,0a1.16,1.16,0,0,1,.24.07,2.21,2.21,0,0,1,.58.4l0,0h0l0,0h0v0h.08Zm1.4-3.49,0,0,0,0Z" transform="translate(-62.04 -56.34)"/><path d="M133.21,64.27a1.36,1.36,0,0,1-.39-.08,1,1,0,0,1-.36-.21.83.83,0,0,1-.36-.66v-3a.32.32,0,0,1-.27-.22l-.17.1-.17-.24,0-.06h0l0,0h0l.26-.25c.1-.09.22-.21.38-.34a2.83,2.83,0,0,0,.33-.27l.05,0a.23.23,0,0,1,.07-.07v-.15c.33.47.61.7.86.7a1.23,1.23,0,0,0,.39-.17v.14a.47.47,0,0,0,0,.17,1.2,1.2,0,0,1-.25.45.9.9,0,0,1-.32.25v2.55a.49.49,0,0,0,.06.2c.07.15.23.22.49.22a.8.8,0,0,0,.31-.07l.05.09Zm-.33-5.63h-.24a.51.51,0,0,1-.56-.37l-.19.09-.16-.26a1,1,0,0,1,.2-.15l.21-.1,0,0a.48.48,0,0,0,.11-.08l.12-.1.2-.14.25-.18a.83.83,0,0,0,.64.45l.11,0,.1,0h0l0,0h.13v.1a.59.59,0,0,1-.08.32,1.05,1.05,0,0,1-.2.27,1.19,1.19,0,0,1-.29.18A.78.78,0,0,1,132.88,58.64Z" transform="translate(-62.04 -56.34)"/><path d="M139,64.3a3.78,3.78,0,0,1-.72.61l0,0-.47.33a1.64,1.64,0,0,0-.25.21l-.3.28-.33.32a.21.21,0,0,1-.1-.06l-.08-.07h0l-.1-.08a.53.53,0,0,1-.12-.1h0l0,0-.08,0a1.21,1.21,0,0,0-.76-.2,1.88,1.88,0,0,0-1,.32,1.64,1.64,0,0,1,.78-.95,2.19,2.19,0,0,1,1.08-.29,1.82,1.82,0,0,1,1.07.27c.29-.27.43-.47.43-.63a.74.74,0,0,0-.26-.4.89.89,0,0,1-.32-.54,3.88,3.88,0,0,0-1.26,1,1.52,1.52,0,0,0-1.12-.74l-.08,0a1.44,1.44,0,0,0-.39.08h-.13a.77.77,0,0,1,.19-.45,1.39,1.39,0,0,1,.17-.21.26.26,0,0,1,.13-.09V59.81l0-.07a.43.43,0,0,0,0-.05s0,0,0-.06a.65.65,0,0,0-.09-.19V59.3a.77.77,0,0,0,.45.12l0,0h.06a4.1,4.1,0,0,0,1.76-.45l.24-.12c.11,0,.24-.13.38-.21a1.18,1.18,0,0,0,1,.7h0l.23-.11a1.73,1.73,0,0,0,.24-.13,1.19,1.19,0,0,1-.17.56,1.18,1.18,0,0,1-.38.39v2.46a1.17,1.17,0,0,0,.28.71l0,0h0l.06.05,0,0h0a.83.83,0,0,1,.21.46A.8.8,0,0,1,139,64.3Zm-1.59-1.5V60.19a.7.7,0,0,1-.58-.35l-.05-.07a.83.83,0,0,0-.08-.12h0a.56.56,0,0,1-.25.07l-.1.05a.25.25,0,0,1-.13,0v2.94l.15,0a1.06,1.06,0,0,1,.59.31h0l.05,0h0l.16-.1.21-.14Z" transform="translate(-62.04 -56.34)"/><path d="M144.37,59.4v.06h0a.36.36,0,0,1,0,.19l-.13.2A.85.85,0,0,1,144,60a1,1,0,0,1-.18.11v3.21c0,.41-.35.7-1.05.86l-.27,0a.9.9,0,0,1-.22,0h-.18c-.85.07-1.27.26-1.27.58,0,.12.07.18.23.18a3.33,3.33,0,0,0,.73-.35,2.29,2.29,0,0,1,1.08-.33,1,1,0,0,1,.72.26.85.85,0,0,1,.3.66.77.77,0,0,1-.26.58.91.91,0,0,1-.63.22.68.68,0,0,1-.43-.09v-.41a.78.78,0,0,0,.37.11H143a.32.32,0,0,0,.17-.06.19.19,0,0,0,.1-.14c0-.08-.06-.12-.16-.12h0a1.6,1.6,0,0,0-.74.29c-.18.12-.34.21-.47.28l-.31.12h-.36a1.1,1.1,0,0,1-.4-.08,1,1,0,0,1-.33-.21,1.13,1.13,0,0,1-.24-.3.85.85,0,0,1-.09-.38V65h0a1,1,0,0,1,.61-.9,1.28,1.28,0,0,1-.43-.3.74.74,0,0,1-.29-.54V60.16c0-.19-.19-.3-.58-.34v-.08l1.29-1,.18.13.18.19a.91.91,0,0,1,.2.41v.1h0V60l1.8-1.22a1,1,0,0,0,.82.51h0a.59.59,0,0,0,.37-.14v.22Zm-1.86,4.14V60.26a.29.29,0,0,1-.1,0l-.11,0-.2-.1-.73.51v2.88c0,.16.14.27.42.32H142l0,0a.87.87,0,0,0,.32-.06C142.45,63.69,142.51,63.63,142.51,63.54Z" transform="translate(-62.04 -56.34)"/><path d="M67.71,63.05a2.63,2.63,0,0,0-.33-.2l-.15-.05-.11,0V60.29l.53-.4h0a2.86,2.86,0,0,0,.29.21.78.78,0,0,0,.34.14v3.1a.45.45,0,0,1-.13.29l.34.19c0-.14.25-.2.66-.2a1.52,1.52,0,0,1,.63.11l.06-.08,0,0h0l0,0h0a1.53,1.53,0,0,1-.26-.49h0l0-3.11a.92.92,0,0,0,.42-.62.51.51,0,0,0,0-.09.25.25,0,0,1,0-.09s0,0,0-.06v-.22a1.5,1.5,0,0,1-.6.27h-.07c-.24,0-.47-.22-.68-.66l-1.52,1.15V57.44s0-.06,0-.12a2.11,2.11,0,0,1,0-.21v0a2,2,0,0,1,.1-.36l0-.07a.41.41,0,0,1,0-.12,1.42,1.42,0,0,0,0-.16h-.08a1.94,1.94,0,0,1-.27.21,3.09,3.09,0,0,1-.73.42,1.72,1.72,0,0,1-.69.15,1.91,1.91,0,0,1,.22.71v5a1.27,1.27,0,0,0-.75.91l.09,0a.32.32,0,0,0,.14,0l.14-.06h.13a1.89,1.89,0,0,1,1.23.64l1.1-1A1.25,1.25,0,0,0,67.71,63.05Z" transform="translate(-62.04 -56.34)"/></svg>